<svg xmlns="http://www.w3.org/2000/svg" viewBox="0 0 264.5 264.5"><defs><style>.cls-1{opacity:0;}.cls-2{fill:#f9f9f9;}.cls-3,.cls-4{fill:none;stroke:#5865f6;stroke-linecap:round;stroke-width:12px;}.cls-3{stroke-miterlimit:10;}.cls-4{stroke-linejoin:round;}</style></defs><g id="Layer_2" data-name="Layer 2"><g id="Layer_1-2" data-name="Layer 1"><g class="cls-1"><rect class="cls-2" width="264.5" height="264.5" rx="55.95"/></g><path class="cls-3" d="M95.06,83.31l.28-4a21.45,21.45,0,0,1,22.89-19.89h0a21.43,21.43,0,0,1,19.89,22.88l-.28,4"/><path class="cls-3" d="M130,87.25l49.86,3.54c5.7.39,10.19,5.29,10.48,11.42l3.3,69.83c1.4,14.35-9.64,26.7-23,25.77l-85.56-6c-13.4-.93-22.62-14.7-19.23-28.72l13-68.69c1.14-6,6.27-10.26,12-9.86l21.5,1.51"/><line class="cls-4" x1="109.8" y1="120.88" x2="155.48" y2="124.12"/><path class="cls-4" d="M157.3,105.16,158.63,86a23.13,23.13,0,0,0-21.47-24.7h0A23.14,23.14,0,0,0,112.47,82.8l-1.27,18.13"/><line class="cls-3" x1="129.95" y1="161.14" x2="128.69" y2="179.15"/><line class="cls-3" x1="153.27" y1="162.77" x2="152.01" y2="180.78"/><path class="cls-3" d="M154.08,144.07l-40.72-2.76a6.93,6.93,0,0,0-7.4,6.43L104,177.15"/></g></g></svg>