<?xml version="1.0" encoding="utf-8"?>
<!-- Generator: Adobe Illustrator 24.0.1, SVG Export Plug-In . SVG Version: 6.00 Build 0)  -->
<svg version="1.1" id="Layer_1" xmlns="http://www.w3.org/2000/svg" xmlns:xlink="http://www.w3.org/1999/xlink" x="0px" y="0px"
	 viewBox="0 0 1000 1000" style="enable-background:new 0 0 1000 1000;" xml:space="preserve">
<style type="text/css">
	.st0{clip-path:url(#SVGID_2_);}
	.st1{opacity:0.3;fill:#1000E2;enable-background:new    ;}
	.st2{fill:none;stroke:#FFFFFF;stroke-width:2;stroke-linecap:round;stroke-linejoin:round;}
	.st3{opacity:0.91;fill:url(#SVGID_3_);enable-background:new    ;}
	.st4{opacity:0.91;fill:url(#SVGID_4_);enable-background:new    ;}
	.st5{opacity:0.91;fill:url(#SVGID_5_);enable-background:new    ;}
	.st6{opacity:0.91;fill:url(#SVGID_6_);enable-background:new    ;}
	.st7{opacity:0.91;fill:url(#SVGID_7_);enable-background:new    ;}
	.st8{opacity:0.91;fill:url(#SVGID_8_);enable-background:new    ;}
	.st9{opacity:0.91;fill:url(#SVGID_9_);enable-background:new    ;}
	.st10{opacity:0.91;fill:url(#SVGID_10_);enable-background:new    ;}
	.st11{opacity:0.91;fill:url(#SVGID_11_);enable-background:new    ;}
	.st12{opacity:0.91;fill:url(#SVGID_12_);enable-background:new    ;}
	.st13{fill:#FFFFFF;}
	.st14{fill:url(#SVGID_13_);}
	.st15{fill:url(#SVGID_14_);}
	.st16{fill:url(#SVGID_15_);}
	.st17{fill:#2A2A30;}
	.st18{font-family:'Arial-BoldMT';}
	.st19{font-size:11.0606px;}
	.st20{opacity:0.4;fill:url(#SVGID_16_);enable-background:new    ;}
	.st21{fill:#D8DBDC;}
	.st22{fill:url(#SVGID_17_);}
	.st23{fill:#FCFBFF;}
	.st24{fill:#7A81EE;}
	.st25{fill:#DC61A2;}
	.st26{fill:#BE5A4D;}
	.st27{fill:url(#SVGID_18_);}
	.st28{clip-path:url(#SVGID_20_);}
	.st29{fill:url(#SVGID_21_);}
	.st30{opacity:0.25;}
	.st31{opacity:0.5;fill:url(#SVGID_22_);enable-background:new    ;}
	.st32{fill:#443E90;}
	.st33{fill:url(#SVGID_23_);}
	.st34{clip-path:url(#SVGID_25_);}
	.st35{fill:url(#SVGID_26_);}
	.st36{clip-path:url(#SVGID_28_);}
	.st37{fill:url(#SVGID_29_);}
	.st38{enable-background:new    ;}
	.st39{fill:url(#SVGID_30_);}
	.st40{fill:url(#SVGID_31_);}
	.st41{fill:url(#SVGID_32_);}
	.st42{opacity:0.4;fill:url(#SVGID_33_);enable-background:new    ;}
	.st43{opacity:0.4;fill:url(#SVGID_34_);enable-background:new    ;}
	.st44{fill:url(#SVGID_35_);}
	.st45{fill:url(#SVGID_36_);}
	.st46{fill:url(#SVGID_37_);}
	.st47{fill:url(#SVGID_38_);}
	.st48{fill:url(#SVGID_39_);}
	.st49{fill:url(#SVGID_40_);}
	.st50{fill:url(#SVGID_41_);}
	.st51{fill:url(#SVGID_42_);}
	.st52{fill:url(#SVGID_43_);}
	.st53{fill:url(#SVGID_44_);}
	.st54{fill:url(#SVGID_45_);}
	.st55{fill:url(#SVGID_46_);}
	.st56{fill:url(#SVGID_47_);}
	.st57{fill:url(#SVGID_48_);}
	.st58{fill:url(#SVGID_49_);}
	.st59{clip-path:url(#SVGID_51_);}
	.st60{opacity:0.4;fill:url(#SVGID_52_);enable-background:new    ;}
	.st61{clip-path:url(#SVGID_54_);}
	.st62{fill:url(#SVGID_55_);}
	.st63{fill:url(#SVGID_56_);}
</style>
<title>flash-shop2</title>
<g>
	<g id="OBJECTS">
		
			<image style="overflow:visible;opacity:0.5;enable-background:new    ;" width="3600" height="2506" xlink:href="9EFB87FEF7E61F7.png"  transform="matrix(0.4415 0 0 0.4415 -498.0705 -53.1328)">
		</image>
		<g>
			<g>
				<g>
					<g>
						<defs>
							<rect id="SVGID_1_" x="-389" y="26.4" width="1384.9" height="923.3"/>
						</defs>
						<clipPath id="SVGID_2_">
							<use xlink:href="#SVGID_1_"  style="overflow:visible;"/>
						</clipPath>
						<g class="st0">
							<path class="st1" d="M223.6,851.1C152.8,801.4,95.1,731.9,65.4,650.5c-44.6-122.7-1.6-241.9,103-306.3
								c58.2-35.9,124-59.8,173.6-108.3c33.8-33.1,58-75.7,88.6-112.1S502.1,55.7,548,56.3c40.2,0.5,76.1,25.5,109.4,49.6
								l141.9,102.6c27.3,19.7,55.2,40.2,73.5,69.5c27.7,44.6,28.2,102.1,22.8,155.2s-15.7,107.1-6.4,159.6
								c8.5,48.2,32.9,91.3,47.8,137.7s18.4,102.6-11,140.5c-26.4,34-71.9,43.3-113.1,40.6c-41.2-2.7-81.7-15.1-123-15.2
								c-56.8,0-111.2,23.1-167.3,32C422,944.4,312.5,913.4,223.6,851.1z"/>
							<path class="st1" d="M706.4,761.9c-41.1,37.6-91.3,63-143.3,68c-78.4,7.4-139.2-42-157.6-122
								c-10.2-44.6-12.2-91.9-31.3-133.1c-12.9-28-33.1-51.4-48.6-78s-26.4-59-17.9-88.9c7.4-26.3,28.2-45.4,48-62.9l84.2-74.8
								c16.2-14.4,32.9-29.1,53-35.8c30.5-10.2,63.6-0.3,93.2,12.7c29.6,13,58.7,29.3,90.5,32.6c29.2,3,58.3-5.3,87.6-6.8
								s62.1,6.2,78.6,32.1c14.8,23.3,12.1,54.8,3.2,81.4s-23.2,50.9-30.6,77.9c-10.1,37.2-6.5,77-11.4,115.4
								C795.3,648.4,758,714.7,706.4,761.9z"/>
							<path class="st2" d="M401.8,449c-0.3,5-4.7,8.8-9.7,8.5s-8.8-4.7-8.5-9.7c0.3-4.8,4.3-8.5,9.1-8.5
								C397.9,439.5,402,443.8,401.8,449L401.8,449z"/>
							
								<radialGradient id="SVGID_3_" cx="609.52" cy="2280.4214" r="229.3584" gradientTransform="matrix(1.25 0 0 0.2 -49.7 429.6819)" gradientUnits="userSpaceOnUse">
								<stop  offset="0" style="stop-color:#AFAFAE;stop-opacity:0.7"/>
								<stop  offset="0.1" style="stop-color:#BEBEBD;stop-opacity:0.57"/>
								<stop  offset="0.28" style="stop-color:#D5D5D5;stop-opacity:0.37"/>
								<stop  offset="0.46" style="stop-color:#E7E7E7;stop-opacity:0.21"/>
								<stop  offset="0.64" style="stop-color:#F5F5F4;stop-opacity:9.000000e-02"/>
								<stop  offset="0.82" style="stop-color:#FCFCFC;stop-opacity:2.000000e-02"/>
								<stop  offset="1" style="stop-color:#FFFFFF;stop-opacity:0"/>
							</radialGradient>
							<ellipse class="st3" cx="712.2" cy="886" rx="210.2" ry="24.3"/>
							
								<radialGradient id="SVGID_4_" cx="609.52" cy="2280.4214" r="229.3584" gradientTransform="matrix(1.25 0 0 0.2 -49.7 429.6819)" gradientUnits="userSpaceOnUse">
								<stop  offset="0" style="stop-color:#AFAFAE;stop-opacity:0.7"/>
								<stop  offset="0.1" style="stop-color:#BEBEBD;stop-opacity:0.57"/>
								<stop  offset="0.28" style="stop-color:#D5D5D5;stop-opacity:0.37"/>
								<stop  offset="0.46" style="stop-color:#E7E7E7;stop-opacity:0.21"/>
								<stop  offset="0.64" style="stop-color:#F5F5F4;stop-opacity:9.000000e-02"/>
								<stop  offset="0.82" style="stop-color:#FCFCFC;stop-opacity:2.000000e-02"/>
								<stop  offset="1" style="stop-color:#FFFFFF;stop-opacity:0"/>
							</radialGradient>
							<ellipse class="st4" cx="712.2" cy="886" rx="210.2" ry="24.3"/>
							
								<radialGradient id="SVGID_5_" cx="676.16" cy="2228.3779" r="229.3427" gradientTransform="matrix(1.25 0 0 0.2 -49.7 420.802)" gradientUnits="userSpaceOnUse">
								<stop  offset="0" style="stop-color:#AFAFAE;stop-opacity:0.7"/>
								<stop  offset="0.1" style="stop-color:#BEBEBD;stop-opacity:0.57"/>
								<stop  offset="0.28" style="stop-color:#D5D5D5;stop-opacity:0.37"/>
								<stop  offset="0.46" style="stop-color:#E7E7E7;stop-opacity:0.21"/>
								<stop  offset="0.64" style="stop-color:#F5F5F4;stop-opacity:9.000000e-02"/>
								<stop  offset="0.82" style="stop-color:#FCFCFC;stop-opacity:2.000000e-02"/>
								<stop  offset="1" style="stop-color:#FFFFFF;stop-opacity:0"/>
							</radialGradient>
							<ellipse class="st5" cx="795.5" cy="866.7" rx="210.2" ry="24.3"/>
							
								<radialGradient id="SVGID_6_" cx="676.16" cy="2228.3779" r="229.3427" gradientTransform="matrix(1.25 0 0 0.2 -49.7 420.802)" gradientUnits="userSpaceOnUse">
								<stop  offset="0" style="stop-color:#AFAFAE;stop-opacity:0.7"/>
								<stop  offset="0.1" style="stop-color:#BEBEBD;stop-opacity:0.57"/>
								<stop  offset="0.28" style="stop-color:#D5D5D5;stop-opacity:0.37"/>
								<stop  offset="0.46" style="stop-color:#E7E7E7;stop-opacity:0.21"/>
								<stop  offset="0.64" style="stop-color:#F5F5F4;stop-opacity:9.000000e-02"/>
								<stop  offset="0.82" style="stop-color:#FCFCFC;stop-opacity:2.000000e-02"/>
								<stop  offset="1" style="stop-color:#FFFFFF;stop-opacity:0"/>
							</radialGradient>
							<ellipse class="st6" cx="795.5" cy="866.7" rx="210.2" ry="24.3"/>
							
								<radialGradient id="SVGID_7_" cx="368.16" cy="2316.6846" r="229.3441" gradientTransform="matrix(1.25 0 0 0.2 -49.7 435.8719)" gradientUnits="userSpaceOnUse">
								<stop  offset="0" style="stop-color:#AFAFAE;stop-opacity:0.7"/>
								<stop  offset="0.1" style="stop-color:#BEBEBD;stop-opacity:0.57"/>
								<stop  offset="0.28" style="stop-color:#D5D5D5;stop-opacity:0.37"/>
								<stop  offset="0.46" style="stop-color:#E7E7E7;stop-opacity:0.21"/>
								<stop  offset="0.64" style="stop-color:#F5F5F4;stop-opacity:9.000000e-02"/>
								<stop  offset="0.82" style="stop-color:#FCFCFC;stop-opacity:2.000000e-02"/>
								<stop  offset="1" style="stop-color:#FFFFFF;stop-opacity:0"/>
							</radialGradient>
							<ellipse class="st7" cx="410.5" cy="899.5" rx="210.2" ry="24.3"/>
							
								<radialGradient id="SVGID_8_" cx="368.16" cy="2316.6846" r="229.3441" gradientTransform="matrix(1.25 0 0 0.2 -49.7 435.8719)" gradientUnits="userSpaceOnUse">
								<stop  offset="0" style="stop-color:#AFAFAE;stop-opacity:0.7"/>
								<stop  offset="0.1" style="stop-color:#BEBEBD;stop-opacity:0.57"/>
								<stop  offset="0.28" style="stop-color:#D5D5D5;stop-opacity:0.37"/>
								<stop  offset="0.46" style="stop-color:#E7E7E7;stop-opacity:0.21"/>
								<stop  offset="0.64" style="stop-color:#F5F5F4;stop-opacity:9.000000e-02"/>
								<stop  offset="0.82" style="stop-color:#FCFCFC;stop-opacity:2.000000e-02"/>
								<stop  offset="1" style="stop-color:#FFFFFF;stop-opacity:0"/>
							</radialGradient>
							<ellipse class="st8" cx="410.5" cy="899.5" rx="210.2" ry="24.3"/>
							
								<radialGradient id="SVGID_9_" cx="493.2739" cy="2203.4414" r="229.337" gradientTransform="matrix(1.48 0 0 0.2 -184.4464 416.542)" gradientUnits="userSpaceOnUse">
								<stop  offset="0" style="stop-color:#AFAFAE;stop-opacity:0.7"/>
								<stop  offset="0.1" style="stop-color:#BEBEBD;stop-opacity:0.57"/>
								<stop  offset="0.28" style="stop-color:#D5D5D5;stop-opacity:0.37"/>
								<stop  offset="0.46" style="stop-color:#E7E7E7;stop-opacity:0.21"/>
								<stop  offset="0.64" style="stop-color:#F5F5F4;stop-opacity:9.000000e-02"/>
								<stop  offset="0.82" style="stop-color:#FCFCFC;stop-opacity:2.000000e-02"/>
								<stop  offset="1" style="stop-color:#FFFFFF;stop-opacity:0"/>
							</radialGradient>
							<ellipse class="st9" cx="541.5" cy="857.5" rx="248.2" ry="24.3"/>
							
								<radialGradient id="SVGID_10_" cx="493.2739" cy="2203.4414" r="229.337" gradientTransform="matrix(1.48 0 0 0.2 -184.4464 416.542)" gradientUnits="userSpaceOnUse">
								<stop  offset="0" style="stop-color:#AFAFAE;stop-opacity:0.7"/>
								<stop  offset="0.1" style="stop-color:#BEBEBD;stop-opacity:0.57"/>
								<stop  offset="0.28" style="stop-color:#D5D5D5;stop-opacity:0.37"/>
								<stop  offset="0.46" style="stop-color:#E7E7E7;stop-opacity:0.21"/>
								<stop  offset="0.64" style="stop-color:#F5F5F4;stop-opacity:9.000000e-02"/>
								<stop  offset="0.82" style="stop-color:#FCFCFC;stop-opacity:2.000000e-02"/>
								<stop  offset="1" style="stop-color:#FFFFFF;stop-opacity:0"/>
							</radialGradient>
							<ellipse class="st10" cx="541.5" cy="857.5" rx="248.2" ry="24.3"/>
							
								<radialGradient id="SVGID_11_" cx="493.2739" cy="2203.4414" r="229.337" gradientTransform="matrix(1.48 0 0 0.2 -184.4464 416.542)" gradientUnits="userSpaceOnUse">
								<stop  offset="0" style="stop-color:#AFAFAE;stop-opacity:0.7"/>
								<stop  offset="0.1" style="stop-color:#BEBEBD;stop-opacity:0.57"/>
								<stop  offset="0.28" style="stop-color:#D5D5D5;stop-opacity:0.37"/>
								<stop  offset="0.46" style="stop-color:#E7E7E7;stop-opacity:0.21"/>
								<stop  offset="0.64" style="stop-color:#F5F5F4;stop-opacity:9.000000e-02"/>
								<stop  offset="0.82" style="stop-color:#FCFCFC;stop-opacity:2.000000e-02"/>
								<stop  offset="1" style="stop-color:#FFFFFF;stop-opacity:0"/>
							</radialGradient>
							<ellipse class="st11" cx="541.5" cy="857.5" rx="248.2" ry="24.3"/>
							
								<radialGradient id="SVGID_12_" cx="493.2739" cy="1794.824" r="229.337" gradientTransform="matrix(1.48 0 0 0.26 -184.4464 396.2936)" gradientUnits="userSpaceOnUse">
								<stop  offset="0" style="stop-color:#AFAFAE;stop-opacity:0.7"/>
								<stop  offset="0.1" style="stop-color:#BEBEBD;stop-opacity:0.57"/>
								<stop  offset="0.28" style="stop-color:#D5D5D5;stop-opacity:0.37"/>
								<stop  offset="0.46" style="stop-color:#E7E7E7;stop-opacity:0.21"/>
								<stop  offset="0.64" style="stop-color:#F5F5F4;stop-opacity:9.000000e-02"/>
								<stop  offset="0.82" style="stop-color:#FCFCFC;stop-opacity:2.000000e-02"/>
								<stop  offset="1" style="stop-color:#FFFFFF;stop-opacity:0"/>
							</radialGradient>
							<ellipse class="st12" cx="541.5" cy="865.1" rx="248.2" ry="31.9"/>
							<path class="st13" d="M720.1,287.4v528.8c0,15.4-11.7,27.8-26.1,27.8H495.8c-14.4,0-26.1-12.5-26.1-27.8V287.4
								c0-15.4,11.7-27.8,26.1-27.8H694C708.4,259.6,720.1,272,720.1,287.4z"/>
							
								<linearGradient id="SVGID_13_" gradientUnits="userSpaceOnUse" x1="452.2319" y1="334.6801" x2="459.0455" y2="334.6801" gradientTransform="matrix(1 0 0 1 0 2.72)">
								<stop  offset="0" style="stop-color:#000000"/>
								<stop  offset="0.31" style="stop-color:#FFFFFF"/>
								<stop  offset="1" style="stop-color:#000000"/>
							</linearGradient>
							<rect x="452.2" y="326.6" class="st14" width="6.8" height="21.6"/>
							
								<linearGradient id="SVGID_14_" gradientUnits="userSpaceOnUse" x1="452.2319" y1="387.13" x2="459.0455" y2="387.13" gradientTransform="matrix(1 0 0 1 0 2.72)">
								<stop  offset="0" style="stop-color:#000000"/>
								<stop  offset="0.31" style="stop-color:#FFFFFF"/>
								<stop  offset="1" style="stop-color:#000000"/>
							</linearGradient>
							<rect x="452.2" y="368.3" class="st15" width="6.8" height="43.1"/>
							
								<linearGradient id="SVGID_15_" gradientUnits="userSpaceOnUse" x1="452.2319" y1="442.33" x2="459.0455" y2="442.33" gradientTransform="matrix(1 0 0 1 0 2.72)">
								<stop  offset="0" style="stop-color:#000000"/>
								<stop  offset="0.31" style="stop-color:#FFFFFF"/>
								<stop  offset="1" style="stop-color:#000000"/>
							</linearGradient>
							<rect x="452.2" y="423.5" class="st16" width="6.8" height="43.1"/>
							
								<image style="overflow:visible;enable-background:new    ;" width="632" height="1364" xlink:href="9EFB87FEF7E61F5.png"  transform="matrix(0.4436 0 0 0.4436 453.7268 246.2301)">
							</image>
							<path d="M650.6,283.1H536.5c-6.7,0-12.1-5.4-12.1-12.1v-16.6h138.3V271C662.7,277.7,657.3,283.1,650.6,283.1z"/>
							<rect x="671.3" y="275.8" class="st17" width="1.9" height="8.3"/>
							<rect x="668.1" y="277.6" class="st17" width="1.9" height="6.5"/>
							<rect x="664.9" y="280" class="st17" width="1.9" height="4.2"/>
							<rect x="661.7" y="281.8" class="st17" width="1.9" height="2.3"/>
							<ellipse class="st17" cx="681.8" cy="282.8" rx="1.2" ry="1.3"/>
							<path class="st17" d="M684.1,281.2c-0.2,0-0.3-0.1-0.4-0.2c-1-1.1-2.6-1.1-3.6-0.2c-0.1,0.1-0.1,0.1-0.2,0.2
								c-0.2,0.2-0.5,0.2-0.7,0l0,0c-0.2-0.2-0.2-0.6,0-0.8c1.4-1.5,3.7-1.6,5.2-0.2c0.1,0,0.1,0.1,0.2,0.2c0.2,0.2,0.2,0.6,0,0.8
								C684.4,281.1,684.2,281.2,684.1,281.2z"/>
							<path class="st17" d="M685.1,279.2c-0.1,0-0.3-0.1-0.4-0.1c-1.7-1.5-4.2-1.5-5.9,0c-0.2,0.2-0.5,0.2-0.7,0l0,0
								c-0.2-0.2-0.2-0.6,0-0.8c2.1-1.9,5.3-1.9,7.4,0c0.2,0.2,0.2,0.6,0,0.8C685.4,279.2,685.2,279.2,685.1,279.2z"/>
							<path class="st17" d="M686.2,277.3c-0.1,0-0.2,0-0.3-0.1c-2.3-1.9-5.7-1.9-8.1,0c-0.2,0.2-0.6,0.1-0.8-0.1l0,0
								c-0.2-0.3-0.2-0.6,0.1-0.8c2.7-2.3,6.7-2.3,9.4,0c0.2,0.2,0.3,0.6,0.1,0.8C686.5,277.2,686.3,277.3,686.2,277.3z"/>
							<text transform="matrix(0.94 0 0 1 489.3843 283.1279)" class="st17 st18 st19">10:12</text>
							<path class="st17" d="M703.2,283.9h-10.1c-1.2,0-2.1-1-2-2.1l0,0v-3.2c0-1.2,0.9-2.1,2-2.1l0,0h10.1c1.1,0,2,1,2,2.1v3.2
								C705.2,282.9,704.3,283.8,703.2,283.9L703.2,283.9z M693.1,276.9c-0.8,0-1.5,0.7-1.5,1.6v3.2c0,0.8,0.6,1.5,1.5,1.6h10.1
								c0.8,0,1.5-0.7,1.5-1.6v-3.2c0-0.8-0.6-1.5-1.5-1.6H693.1z"/>
							<path class="st17" d="M701.6,282.8c0.8,0,1.4-0.7,1.3-1.4v-2.5c0-0.8-0.6-1.4-1.3-1.4h-7.7c-0.8,0-1.4,0.7-1.3,1.4l0,0v2.5
								c0,0.8,0.6,1.4,1.3,1.4l0,0H701.6z"/>
							<path class="st17" d="M706.4,282h-1.8v-3.7h1.8V282z M705.2,281.4h0.7v-2.5h-0.7V281.4z"/>
							
								<linearGradient id="SVGID_16_" gradientUnits="userSpaceOnUse" x1="472.5" y1="693.68" x2="714.9" y2="693.68" gradientTransform="matrix(1 0 0 1 0 2.72)">
								<stop  offset="0" style="stop-color:#FFFFFF;stop-opacity:0.4"/>
								<stop  offset="0.58" style="stop-color:#17A7F3;stop-opacity:0.74"/>
								<stop  offset="1" style="stop-color:#1000E2"/>
							</linearGradient>
							<rect x="472.5" y="670.1" class="st20" width="242.4" height="52.6"/>
							<rect x="493.6" y="763.8" class="st21" width="186.7" height="7"/>
							<rect x="493.6" y="800.2" class="st21" width="141.4" height="7"/>
							<rect x="642.4" y="800.2" class="st21" width="37.9" height="7"/>
							<rect x="493.6" y="745.6" class="st21" width="106.5" height="7"/>
							<rect x="604.8" y="745.6" class="st21" width="28.5" height="7"/>
							<rect x="638" y="745.6" class="st21" width="42.2" height="7"/>
							<rect x="493.6" y="782" class="st21" width="71.3" height="7"/>
							<rect x="574.7" y="782" class="st21" width="105.6" height="7"/>
							
								<linearGradient id="SVGID_17_" gradientUnits="userSpaceOnUse" x1="489.7" y1="715.48" x2="534.9999" y2="670.18" gradientTransform="matrix(1 0 0 1 0 2.72)">
								<stop  offset="0" style="stop-color:#17A7F3"/>
								<stop  offset="1" style="stop-color:#1000E2"/>
							</linearGradient>
							<rect x="486.3" y="676.3" class="st22" width="52.1" height="38.5"/>
							<rect x="503.6" y="693.3" class="st23" width="6" height="10.1"/>
							<path class="st23" d="M510.5,693.3c1.9-2.9,3.6-6,4.9-9.2c0.4-1,2.5-0.1,1.5,4c-0.3,1.3-0.7,2.5-1.2,3.7h6
								c0.4,0,0.7,0.3,0.8,0.7c0.4,2,1.3,8-2.6,10.9c-0.1,0.1-0.3,0.2-0.5,0.2h-8.9L510.5,693.3L510.5,693.3z"/>
							<path class="st24" d="M868.4,684.9c-1.7,0-2.9-1.4-2.9-3.1l0,0v-26.9c0-16.1-12.3-29.2-27.3-29.2
								c-15.1,0-27.3,13.1-27.3,29.2v24.9c0.1,1.6-1.1,3-2.7,3.1c-1.6,0.1-3-1.1-3.1-2.7c0-0.2,0-0.3,0-0.5v-24.9
								c0-19.5,14.8-35.4,33.1-35.4c18.4,0,33.1,15.9,33.1,35.4v27C871.3,683.5,870,684.8,868.4,684.9z"/>
							<polygon class="st25" points="909.2,866.6 909.2,866.6 854.4,866.6 744.8,866.5 744.7,866.5 745.1,859.8 746,846.3 
								746.5,839.4 747.4,826 747.8,819.2 748.7,805.7 749.2,798.9 750.1,785.5 750.5,778.6 751.4,765.2 751.9,758.3 752.8,744.9 
								753.2,738 754.1,724.6 754.6,717.8 755.5,704.3 755.6,702.6 755.9,697.5 758.2,662.9 758.5,658.9 896.5,658.9 896.7,662.9 
								897.8,679.6 898.1,685.2 898.8,697.5 899.3,704.3 900.1,717.8 900.5,724.6 901.3,738 901.7,744.9 902.6,758.3 903,765.2 
								903.8,778.6 904.2,785.5 905,798.9 905.5,805.7 906.3,819.2 906.7,826 907.5,839.4 907.8,843.9 907.8,844.4 908,846.3 
								908.8,859.8 							"/>
							<polygon class="st25" points="765.6,669.4 758.1,684.1 757.1,697.5 756.6,704.3 755.7,717.8 755.2,724.6 754.2,738 
								753.7,744.9 752.7,758.3 752.2,765.2 751.2,778.6 750.7,785.5 749.7,798.9 749.2,805.7 748.2,819.2 747.7,826 746.8,839.4 
								746.3,846.3 745.3,859.8 744.8,866.5 745.2,859.8 746.1,846.3 746.5,839.4 747.4,826 747.9,819.2 748.8,805.7 749.2,798.9 
								750.1,785.5 750.6,778.6 751.5,765.2 751.9,758.3 752.8,744.9 752.8,744.9 753.3,738 754.1,724.6 754.6,717.8 755.5,704.3 
								755.6,702.6 755.9,697.5 758.2,662.9 758.5,658.9 761.2,662.9 							"/>
							<polygon class="st26" points="765.6,669.4 765.6,691.4 758.1,684.1 							"/>
							<polygon class="st25" points="909.5,866.6 909.4,866.6 909.3,865 909.3,863.9 909,859.8 908,846.3 907.8,844.4 907.8,843.9 
								907.5,839.4 906.5,826 906,819.2 905,805.7 904.5,798.9 903.5,785.5 903,778.6 902,765.2 901.5,758.3 900.5,744.9 900,738 
								899.1,724.6 898.5,717.8 897.6,704.3 897.1,697.5 896.1,684.1 893.3,678.1 889.3,669.5 890.5,667.8 893.8,662.9 896.4,659 
								896.7,662.9 897.8,679.6 898.1,685.2 898.2,686.4 898.9,697.5 899.3,704.3 900.2,717.8 900.5,724.6 901.4,738 901.8,744.9 
								902.7,758.3 903.1,765.2 904,778.6 904.4,785.5 905.2,798.9 905.6,805.7 906.5,819.2 906.9,826 907.8,839.4 908.2,846.3 
								909,859.8 							"/>
							<polygon class="st26" points="889.4,666.1 889.4,681 896.1,676.1 							"/>
							
								<linearGradient id="SVGID_18_" gradientUnits="userSpaceOnUse" x1="819.3075" y1="636.8948" x2="826.4704" y2="845.5396" gradientTransform="matrix(1 0 0 1 0 2.72)">
								<stop  offset="0" style="stop-color:#17A7F3"/>
								<stop  offset="1" style="stop-color:#1000E2"/>
							</linearGradient>
							<polygon class="st27" points="909.4,866.6 909.4,866.6 744.8,866.6 744.8,866.5 745.2,859.8 746.1,846.3 746.5,839.4 
								747.4,826 747.9,819.2 748.8,805.7 749.2,798.9 750.1,785.5 750.6,778.6 751.5,765.2 751.9,758.3 752.8,744.9 752.8,744.9 
								753.3,738 754.1,724.6 754.6,717.8 754.6,717.8 755.5,704.3 755.6,702.6 755.9,697.5 758.2,662.9 896.7,662.9 897.8,679.6 
								898.1,685.2 898.2,686.4 898.9,697.5 899.3,704.3 900.2,717.8 900.6,724.6 901.4,738 901.8,744.9 902.7,758.3 903.1,765.2 
								903.9,778.6 904.4,785.5 905.2,798.9 905.6,805.7 906.5,819.2 906.9,826 907.7,839.4 908.2,846.3 909,859.8 909.3,863.9 
								909.3,865 							"/>
							<path class="st25" d="M801.4,683.9c0.8,3.2-1.1,6.5-4.3,7.4c-3.1,0.7-6.2-1.3-6.9-4.4c0-0.1,0-0.1,0-0.2
								c-0.8-3.2,1.1-6.5,4.3-7.4c3.1-0.7,6.2,1.3,6.9,4.4C801.3,683.8,801.3,683.9,801.4,683.9z"/>
							<path class="st25" d="M861.8,684.7c0.8,3.2-1.1,6.5-4.3,7.4c-3.1,0.7-6.2-1.3-6.9-4.4c0-0.1,0-0.1,0-0.2
								c-0.8-3.2,1.1-6.5,4.3-7.4c3.1-0.7,6.2,1.3,6.9,4.4C861.8,684.6,861.8,684.7,861.8,684.7z"/>
							<g>
								<g>
									<g>
										<g>
											<defs>
												<polygon id="SVGID_19_" points="909.4,866.6 909.4,866.6 744.8,866.6 744.8,866.5 745.2,859.7 746.1,846.3 746.5,839.4 
													747.4,826 747.9,819.2 748.8,805.7 749.2,798.9 750.1,785.4 750.6,778.6 751.5,765.2 751.9,758.3 752.8,744.9 
													752.8,744.9 753.3,738 754.1,724.6 754.6,717.7 754.6,717.7 755.5,704.3 755.6,702.6 755.9,697.5 758.2,662.9 
													896.7,662.9 897.8,679.6 898.1,685.2 898.2,686.4 898.9,697.5 899.3,704.3 900.2,717.7 900.6,724.6 901.4,738 
													901.8,744.9 902.7,758.3 903.1,765.2 903.9,778.6 904.4,785.4 905.2,798.9 905.6,805.7 906.5,819.2 906.9,826 
													907.7,839.4 908.2,846.3 909,859.7 909.3,863.8 909.3,865 												"/>
											</defs>
											<clipPath id="SVGID_20_">
												<use xlink:href="#SVGID_19_"  style="overflow:visible;"/>
											</clipPath>
											<g class="st28">
												
													<radialGradient id="SVGID_21_" cx="-603.1192" cy="11799.2432" r="46.089" gradientTransform="matrix(-3.95 0 0 4.000000e-02 -1559.1541 164.8444)" gradientUnits="userSpaceOnUse">
													<stop  offset="0" style="stop-color:#FFFFFF"/>
													<stop  offset="0.13" style="stop-color:#E6E6E6"/>
													<stop  offset="0.4" style="stop-color:#A4A4A4"/>
													<stop  offset="0.78" style="stop-color:#3C3C3C"/>
													<stop  offset="1" style="stop-color:#000000"/>
												</radialGradient>
												<path class="st29" d="M641.6,663.4c0,1.1,81.5,2,182.1,2s182.1-0.9,182.1-2s-81.5-2-182.1-2S641.6,662.3,641.6,663.4z"
													/>
											</g>
										</g>
									</g>
								</g>
							</g>
							<path class="st24" d="M856.2,690.5c-1.7-0.1-2.9-1.4-2.9-3.1l0,0v-26.9c0-16.1-12.3-29.2-27.3-29.2
								c-15.1,0-27.3,13.1-27.3,29.2v24.9c0.1,1.6-1.1,3-2.7,3.1c-1.6,0.1-3-1.1-3.1-2.7c0-0.2,0-0.3,0-0.5v-24.9
								c0-19.5,14.9-35.4,33.1-35.4c18.3,0,33.1,15.9,33.1,35.4v27C859.1,689.1,857.9,690.4,856.2,690.5z"/>
							<g class="st30">
								<polygon class="st23" points="899.3,704.3 755.5,704.3 755.6,702.6 755.9,697.5 898.9,697.5 								"/>
							</g>
							<g class="st30">
								<polygon class="st23" points="900.6,724.6 754.1,724.6 754.6,717.8 900.2,717.8 								"/>
							</g>
							<g class="st30">
								<polygon class="st23" points="901.8,744.9 752.8,744.9 753.2,738 901.4,738 								"/>
							</g>
							<g class="st30">
								<polygon class="st23" points="903.1,765.2 751.4,765.2 751.9,758.3 902.7,758.3 								"/>
							</g>
							<g class="st30">
								<polygon class="st23" points="904.4,785.5 750.1,785.5 750.5,778.6 904,778.6 								"/>
							</g>
							<g class="st30">
								<polygon class="st23" points="905.6,805.7 748.7,805.7 749.2,798.9 905.2,798.9 								"/>
							</g>
							<g class="st30">
								<polygon class="st23" points="906.9,826 747.4,826 747.8,819.2 906.5,819.2 								"/>
							</g>
							<g class="st30">
								<polygon class="st23" points="908.2,846.3 746,846.3 746.5,839.4 907.8,839.4 								"/>
							</g>
							<g class="st30">
								<polygon class="st23" points="909.5,866.6 744.8,866.6 744.8,866.5 744.7,866.5 745.1,859.8 909,859.8 								"/>
							</g>
							
								<radialGradient id="SVGID_22_" cx="470.785" cy="484.0035" r="49.9667" gradientTransform="matrix(2.59 0 0 2.77 -445.1112 -545.6328)" gradientUnits="userSpaceOnUse">
								<stop  offset="0" style="stop-color:#1D214B"/>
								<stop  offset="6.000000e-02" style="stop-color:#36395F;stop-opacity:0.89"/>
								<stop  offset="0.3" style="stop-color:#8D90A5;stop-opacity:0.5"/>
								<stop  offset="0.54" style="stop-color:#CCCDD7;stop-opacity:0.22"/>
								<stop  offset="0.78" style="stop-color:#F2F3F5;stop-opacity:6.000000e-02"/>
								<stop  offset="1" style="stop-color:#FFFFFF;stop-opacity:0"/>
							</radialGradient>
							<ellipse class="st31" cx="773.6" cy="792.7" rx="76" ry="85.9"/>
							<path class="st32" d="M750.1,771.8c-1.7-0.1-2.9-1.4-2.9-3.1l0,0v-26.9c0-16.1-12.3-29.2-27.3-29.2
								c-15.1,0-27.3,13.1-27.3,29.2v25c0.1,1.6-1.1,3-2.7,3.1c-1.6,0.1-3-1.1-3.1-2.7c0-0.2,0-0.3,0-0.5v-25
								c0-19.5,14.9-35.4,33.1-35.4c18.3,0,33.1,15.9,33.1,35.4v26.9C753,770.4,751.7,771.8,750.1,771.8z"/>
							<polyline class="st24" points="781.9,741.6 794.7,882.7 630.1,882.7 643.9,741.6 							"/>
							<polygon class="st24" points="643.9,741.6 651,748.7 643.6,758.7 630.2,882.7 							"/>
							<polygon class="st26" points="651,748.7 651,763.6 643.5,758.6 							"/>
							<polygon class="st24" points="781.9,741.6 774.8,748.7 781.5,758.7 794.9,882.8 							"/>
							<polygon class="st26" points="774.8,748.7 774.8,763.6 781.5,758.7 							"/>
							
								<linearGradient id="SVGID_23_" gradientUnits="userSpaceOnUse" x1="705.7585" y1="720.4319" x2="712.923" y2="888.7418" gradientTransform="matrix(1 0 0 1 0 2.72)">
								<stop  offset="0" style="stop-color:#1000E2"/>
								<stop  offset="0.16" style="stop-color:#1F1BCC"/>
								<stop  offset="0.35" style="stop-color:#2623B5"/>
								<stop  offset="0.56" style="stop-color:#4C49CE"/>
								<stop  offset="0.77" style="stop-color:#5E5CB7"/>
								<stop  offset="0.99" style="stop-color:#956AF4"/>
								<stop  offset="1" style="stop-color:#8987C4"/>
							</linearGradient>
							<polygon class="st33" points="794.9,882.7 630.2,882.7 643.6,745.5 782.3,745.5 							"/>
							<g>
								<g>
									<g>
										<g>
											<defs>
												<polygon id="SVGID_24_" points="794.9,882.7 630.2,882.7 643.6,745.5 782.3,745.5 												"/>
											</defs>
											<clipPath id="SVGID_25_">
												<use xlink:href="#SVGID_24_"  style="overflow:visible;"/>
											</clipPath>
											<g class="st34">
												
													<radialGradient id="SVGID_26_" cx="-1543.2587" cy="11579.7236" r="46.089" gradientTransform="matrix(1 0 0 1 0 2.72)" gradientUnits="userSpaceOnUse">
													<stop  offset="0" style="stop-color:#FFFFFF"/>
													<stop  offset="0.13" style="stop-color:#E6E6E6"/>
													<stop  offset="0.4" style="stop-color:#A4A4A4"/>
													<stop  offset="0.78" style="stop-color:#3C3C3C"/>
													<stop  offset="1" style="stop-color:#000000"/>
												</radialGradient>
												<ellipse class="st35" cx="745.8" cy="745.8" rx="182.1" ry="2"/>
											</g>
										</g>
									</g>
								</g>
							</g>
							<g>
								<g>
									<g>
										<g>
											<defs>
												<polygon id="SVGID_27_" points="794.9,882.7 630.2,882.7 643.6,745.5 782.3,745.5 												"/>
											</defs>
											<clipPath id="SVGID_28_">
												<use xlink:href="#SVGID_27_"  style="overflow:visible;"/>
											</clipPath>
											<g class="st36">
												<g class="st30">
													<polygon class="st23" points="791.5,892.8 791.5,732.3 793.2,732.4 798.2,732.7 798.2,892.4 													"/>
												</g>
												<g class="st30">
													<polygon class="st23" points="771.7,894.3 771.7,730.7 778.4,731.3 778.4,893.8 													"/>
												</g>
												<g class="st30">
													<polygon class="st23" points="751.8,895.7 751.8,729.2 758.6,729.7 758.6,895.2 													"/>
												</g>
												<g class="st30">
													<polygon class="st23" points="732,897.1 732,727.7 738.7,728.2 738.7,896.6 													"/>
												</g>
												<g class="st30">
													<polygon class="st23" points="712.2,898.5 712.2,726.2 718.9,726.8 718.9,898 													"/>
												</g>
												<g class="st30">
													<polygon class="st23" points="692.4,899.9 692.4,724.7 699.1,725.2 699.1,899.5 													"/>
												</g>
												<g class="st30">
													<polygon class="st23" points="672.5,901.4 672.5,723.2 679.2,723.7 679.2,900.9 													"/>
												</g>
												<g class="st30">
													<polygon class="st23" points="652.7,902.8 652.7,721.7 659.4,722.2 659.4,902.3 													"/>
												</g>
												<g class="st30">
													<polygon class="st23" points="632.8,904.2 632.8,720.3 632.9,720.3 632.9,720.2 639.5,720.7 639.5,903.7 													
														"/>
												</g>
											</g>
										</g>
									</g>
								</g>
							</g>
							<path class="st24" d="M686.8,766.6c0.8,3.2-1.1,6.5-4.3,7.4c-3.1,0.7-6.2-1.3-6.9-4.3c0-0.1,0-0.2,0-0.2
								c-0.8-3.2,1.1-6.5,4.3-7.4C683,761.4,686.1,763.4,686.8,766.6C686.8,766.4,686.8,766.5,686.8,766.6z"/>
							<path class="st24" d="M747.3,767.4c0.8,3.2-1.1,6.5-4.3,7.4c-3.1,0.7-6.2-1.3-6.9-4.3c0-0.1,0-0.2,0-0.2
								c-0.8-3.2,1.1-6.5,4.3-7.4C743.5,762.2,746.6,764.2,747.3,767.4C747.3,767.2,747.3,767.3,747.3,767.4z"/>
							<path class="st24" d="M741.4,771.8c-1.6-0.1-2.9-1.4-2.9-3.1v-26.9c0-16.1-12.3-29.2-27.3-29.2s-27.3,13.1-27.3,29.2v25
								c0.1,1.6-1.1,3-2.7,3.1c-1.6,0.1-3-1.1-3.1-2.7c0-0.2,0-0.3,0-0.5v-25c0-19.5,14.8-35.4,33.1-35.4
								c18.4,0,33.1,15.9,33.1,35.4v26.9C744.4,770.4,743.1,771.8,741.4,771.8L741.4,771.8z"/>
							
								<image style="overflow:visible;opacity:0.5;enable-background:new    ;" width="1557" height="545" xlink:href="9EFB87FEF7E61FB.png"  transform="matrix(0.4436 0 0 0.4436 322.5761 429.6445)">
							</image>
							
								<linearGradient id="SVGID_29_" gradientUnits="userSpaceOnUse" x1="498.7886" y1="626.3626" x2="571.3902" y2="553.7609" gradientTransform="matrix(1 0 0 1 59.08 45.86)">
								<stop  offset="0" style="stop-color:#17A7F3"/>
								<stop  offset="1" style="stop-color:#1000E2"/>
							</linearGradient>
							<path class="st37" d="M639.2,656h-90.1c-10.4,0-18.8-9-18.8-20.1l0,0c0-11.1,8.4-20.1,18.8-20.1h90.1
								c10.4,0,18.9,9,18.9,20.1l0,0C658.1,646.9,649.6,656,639.2,656z"/>
							<g class="st38">
								<path class="st13" d="M542.7,642.4v-12.9h8v2.2h-5.7v3h4.9v2.2h-4.9v5.5H542.7z"/>
								<path class="st13" d="M552.8,642.4v-12.8h2.4v10.6h5.9v2.2H552.8z"/>
								<path class="st13" d="M573.3,642.4h-2.6l-1-2.9H565l-1,2.9h-2.5l4.6-12.9h2.5L573.3,642.4z M569,637.3l-1.6-4.8l-1.6,4.8
									H569z"/>
								<path class="st13" d="M574,638.2l2.3-0.2c0.1,0.8,0.4,1.5,0.8,1.9s1,0.6,1.7,0.6c0.8,0,1.3-0.2,1.7-0.5
									c0.4-0.4,0.6-0.8,0.6-1.2c0-0.3-0.1-0.6-0.2-0.8c-0.2-0.2-0.4-0.4-0.9-0.6c-0.3-0.1-0.9-0.3-1.9-0.6
									c-1.3-0.3-2.2-0.8-2.7-1.3c-0.7-0.7-1.1-1.6-1.1-2.6c0-0.7,0.2-1.3,0.5-1.8c0.3-0.6,0.8-1,1.5-1.3c0.6-0.3,1.4-0.4,2.3-0.4
									c1.5,0,2.6,0.4,3.3,1.1c0.7,0.7,1.1,1.7,1.2,2.8l-2.4,0.1c-0.1-0.7-0.3-1.1-0.7-1.4c-0.3-0.3-0.8-0.4-1.5-0.4
									c-0.7,0-1.2,0.2-1.6,0.5c-0.3,0.2-0.4,0.5-0.4,0.8c0,0.3,0.1,0.6,0.4,0.8c0.3,0.3,1,0.6,2.2,0.9s2,0.6,2.6,0.9
									c0.6,0.3,1,0.8,1.3,1.3c0.3,0.6,0.5,1.2,0.5,2.1c0,0.7-0.2,1.4-0.6,2.1s-0.9,1.1-1.6,1.4c-0.7,0.3-1.5,0.5-2.6,0.5
									c-1.5,0-2.6-0.4-3.4-1.1C574.6,640.7,574.1,639.6,574,638.2z"/>
								<path class="st13" d="M585.5,642.4v-12.9h2.4v5.1h4.6v-5.1h2.4v12.9h-2.4v-5.6h-4.6v5.6H585.5z"/>
								<path class="st13" d="M601.8,642.4v-12.9h3.5l2.1,8.8l2.1-8.8h3.6v12.9H611v-10.1l-2.3,10.1h-2.3l-2.3-10.1v10.1H601.8z"/>
								<path class="st13" d="M626.1,642.4h-2.6l-1-2.9h-4.7l-1,2.9h-2.5l4.6-12.9h2.5L626.1,642.4z M621.7,637.3l-1.6-4.8l-1.6,4.8
									H621.7z"/>
								<path class="st13" d="M627.4,642.4v-12.8h2.4v10.6h5.9v2.2H627.4z"/>
								<path class="st13" d="M637.4,642.4v-12.8h2.4v10.6h5.9v2.2H637.4z"/>
							</g>
							
								<linearGradient id="SVGID_30_" gradientUnits="userSpaceOnUse" x1="765.7" y1="557.8911" x2="915.8" y2="557.8911" gradientTransform="matrix(1 0 0 1 0 2.72)">
								<stop  offset="0" style="stop-color:#17A7F3"/>
								<stop  offset="1" style="stop-color:#1000E2"/>
							</linearGradient>
							<path class="st39" d="M783.4,537h114.7c9.8,0,17.7,7.9,17.7,17.7v11.9c0,9.8-7.9,17.7-17.7,17.7H783.4
								c-9.8,0-17.7-7.9-17.7-17.7v-11.9C765.7,545,773.6,537,783.4,537z"/>
							<g class="st38">
								<path class="st13" d="M792,552.4h6c1.2,0,2.1,0.1,2.6,0.2s1.1,0.3,1.6,0.7c0.5,0.3,0.8,0.8,1.1,1.4s0.5,1.2,0.5,1.9
									c0,0.8-0.2,1.5-0.6,2.1c-0.4,0.6-0.9,1.1-1.5,1.4c0.9,0.3,1.6,0.8,2.1,1.5c0.5,0.7,0.7,1.5,0.7,2.5c0,0.7-0.2,1.5-0.5,2.2
									c-0.3,0.7-0.7,1.3-1.3,1.7c-0.5,0.4-1.2,0.7-2,0.8c-0.5,0.1-1.7,0.1-3.6,0.1H792V552.4z M795,555.1v3.8h2
									c1.2,0,1.9,0,2.2-0.1c0.5-0.1,0.9-0.3,1.2-0.6c0.3-0.3,0.4-0.8,0.4-1.3c0-0.5-0.1-0.9-0.4-1.2c-0.3-0.3-0.6-0.5-1.1-0.6
									c-0.3,0-1.2-0.1-2.6-0.1H795z M795,561.7v4.4h2.8c1.1,0,1.8,0,2.1-0.1c0.4-0.1,0.8-0.3,1.1-0.7c0.3-0.3,0.4-0.8,0.4-1.4
									c0-0.5-0.1-0.9-0.3-1.3c-0.2-0.3-0.5-0.6-0.9-0.8c-0.4-0.2-1.3-0.2-2.7-0.2H795z"/>
								<path class="st13" d="M807,552.3h3v8.9c0,1.4,0,2.3,0.1,2.7c0.1,0.7,0.4,1.2,0.9,1.6c0.5,0.4,1.1,0.6,2,0.6
									c0.9,0,1.5-0.2,1.9-0.6c0.4-0.4,0.7-0.9,0.8-1.4c0.1-0.6,0.1-1.5,0.1-2.8v-9.1h3v8.6c0,2-0.1,3.4-0.2,4.2
									c-0.2,0.8-0.5,1.5-0.9,2.1c-0.4,0.6-1,1-1.8,1.3c-0.7,0.3-1.7,0.5-2.9,0.5c-1.4,0-2.5-0.2-3.2-0.5c-0.7-0.4-1.3-0.8-1.7-1.4
									c-0.4-0.6-0.7-1.2-0.8-1.8c-0.2-0.9-0.3-2.3-0.3-4.2V552.3z"/>
								<path class="st13" d="M826,568.8v-6.9l-5.5-9.5h3.5l3.5,6.5l3.4-6.5h3.5l-5.5,9.5v6.9H826z"/>
								<path class="st13" d="M841.5,568.8v-16.4h2.9l6.1,11v-11h2.8v16.4h-3l-6-10.7v10.7H841.5z"/>
								<path class="st13" d="M855.9,560.7c0-1.7,0.2-3.1,0.7-4.2c0.3-0.8,0.8-1.6,1.4-2.2c0.6-0.7,1.2-1.2,1.9-1.5
									c0.9-0.4,2-0.6,3.2-0.6c2.2,0,4,0.8,5.3,2.3c1.3,1.5,2,3.6,2,6.3c0,2.7-0.7,4.7-2,6.2c-1.3,1.5-3.1,2.2-5.3,2.2
									c-2.2,0-4-0.7-5.3-2.2C856.6,565.4,855.9,563.3,855.9,560.7z M859,560.6c0,1.9,0.4,3.3,1.2,4.2s1.8,1.4,3,1.4
									c1.2,0,2.2-0.5,3-1.4c0.8-1,1.2-2.4,1.2-4.3c0-1.9-0.4-3.3-1.1-4.2s-1.7-1.4-3-1.4s-2.2,0.5-3,1.4
									C859.4,557.3,859,558.7,859,560.6z"/>
								<path class="st13" d="M874.9,568.8l-3.6-16.4h3.1l2.3,11.3l2.7-11.3h3.6l2.6,11.5l2.3-11.5h3l-3.6,16.4h-3.2l-3-12.3
									l-3,12.3H874.9z"/>
							</g>
							
								<linearGradient id="SVGID_31_" gradientUnits="userSpaceOnUse" x1="342.2146" y1="580.0654" x2="397.1241" y2="525.1559" gradientTransform="matrix(1 0 0 1 0 2.72)">
								<stop  offset="0" style="stop-color:#17A7F3"/>
								<stop  offset="1" style="stop-color:#1000E2"/>
							</linearGradient>
							<ellipse class="st40" cx="369.7" cy="555.3" rx="37.6" ry="40.1"/>
							<rect x="345.7" y="548.6" class="st13" width="14" height="23.7"/>
							<path class="st13" d="M362.1,548.5c0,0,5-6.6,11.5-21.7c1-2.3,6-0.3,3.4,9.2c-0.6,3-1.6,5.9-2.8,8.7h14.1
								c0.9,0,1.7,0.7,1.8,1.6c1,4.7,3.1,18.7-6,25.5c-0.3,0.3-0.8,0.4-1.2,0.4H362v-23.7H362.1z"/>
							
								<linearGradient id="SVGID_32_" gradientUnits="userSpaceOnUse" x1="771.2802" y1="488.3997" x2="814.7198" y2="444.9603" gradientTransform="matrix(1 0 0 1 0 2.72)">
								<stop  offset="0" style="stop-color:#17A7F3"/>
								<stop  offset="1" style="stop-color:#1000E2"/>
							</linearGradient>
							<ellipse class="st41" cx="793" cy="469.4" rx="29.7" ry="31.7"/>
							<path class="st13" d="M805.7,467.7c-3.6,5.4-7.9,10.4-12.7,14.8c-4.8-4.4-9-9.4-12.6-14.8c-1.4-2.3-1.4-5.1,0-7.4
								c1.2-2.5,3.8-4,6.5-3.9c4.9,0.4,6.1,5.6,6.1,5.6s1.1-5.3,6.1-5.6c2.8-0.1,5.4,1.4,6.6,3.9
								C807.1,462.6,807.1,465.4,805.7,467.7z"/>
							
								<linearGradient id="SVGID_33_" gradientUnits="userSpaceOnUse" x1="594.8057" y1="565.8982" x2="601.5269" y2="402.1862" gradientTransform="matrix(1 0 0 1 0 2.72)">
								<stop  offset="0" style="stop-color:#FFFFFF;stop-opacity:0.4"/>
								<stop  offset="0.58" style="stop-color:#B499DE;stop-opacity:0.74"/>
								<stop  offset="1" style="stop-color:#7A4CC5"/>
							</linearGradient>
							<polygon class="st42" points="743.6,378.1 463.1,643.4 463.1,342.9 							"/>
							
								<linearGradient id="SVGID_34_" gradientUnits="userSpaceOnUse" x1="594.8057" y1="565.8982" x2="601.5269" y2="402.1862" gradientTransform="matrix(1 0 0 1 0 2.72)">
								<stop  offset="0" style="stop-color:#FFFFFF;stop-opacity:0.4"/>
								<stop  offset="0.58" style="stop-color:#17A7F3;stop-opacity:0.74"/>
								<stop  offset="1" style="stop-color:#1000E2"/>
							</linearGradient>
							<polygon class="st43" points="743.6,378.1 463.1,643.4 463.1,342.9 							"/>
							
								<linearGradient id="SVGID_35_" gradientUnits="userSpaceOnUse" x1="405.3834" y1="332.2018" x2="394.0459" y2="-12.0807" gradientTransform="matrix(1 0 0 1 0 2.72)">
								<stop  offset="0" style="stop-color:#28067E"/>
								<stop  offset="0.16" style="stop-color:#2D0A83"/>
								<stop  offset="0.35" style="stop-color:#3A1691"/>
								<stop  offset="0.56" style="stop-color:#502AA9"/>
								<stop  offset="0.77" style="stop-color:#6E47CA"/>
								<stop  offset="0.99" style="stop-color:#956AF4"/>
								<stop  offset="1" style="stop-color:#976CF6"/>
							</linearGradient>
							<polygon class="st44" points="394.5,362.3 316,362.3 453.9,263 493.3,263 							"/>
							
								<linearGradient id="SVGID_36_" gradientUnits="userSpaceOnUse" x1="205.0558" y1="203.7253" x2="565.4767" y2="351.7789" gradientTransform="matrix(1 0 0 1 0 2.72)">
								<stop  offset="0" style="stop-color:#5F90F2"/>
								<stop  offset="1" style="stop-color:#5A56F4"/>
							</linearGradient>
							<polygon class="st45" points="473,362.3 394.5,362.3 493.3,263 532.7,263 							"/>
							
								<linearGradient id="SVGID_37_" gradientUnits="userSpaceOnUse" x1="523.1455" y1="328.0104" x2="511.8264" y2="-15.6442" gradientTransform="matrix(1 0 0 1 0 2.72)">
								<stop  offset="0" style="stop-color:#28067E"/>
								<stop  offset="0.16" style="stop-color:#2D0A83"/>
								<stop  offset="0.35" style="stop-color:#3A1691"/>
								<stop  offset="0.56" style="stop-color:#502AA9"/>
								<stop  offset="0.77" style="stop-color:#6E47CA"/>
								<stop  offset="0.99" style="stop-color:#956AF4"/>
								<stop  offset="1" style="stop-color:#976CF6"/>
							</linearGradient>
							<polygon class="st46" points="551.5,362.3 473,362.3 532.7,263 572.1,263 							"/>
							
								<linearGradient id="SVGID_38_" gradientUnits="userSpaceOnUse" x1="205.1105" y1="155.2929" x2="584.8462" y2="311.3048" gradientTransform="matrix(1 0 0 1 0 2.72)">
								<stop  offset="0" style="stop-color:#5F90F2"/>
								<stop  offset="1" style="stop-color:#5A56F4"/>
							</linearGradient>
							<polygon class="st47" points="634.2,362.3 551.5,362.3 572.1,263 611.5,263 							"/>
							
								<linearGradient id="SVGID_39_" gradientUnits="userSpaceOnUse" x1="662.4844" y1="323.1178" x2="651.1838" y2="-19.9091" gradientTransform="matrix(1 0 0 1 0 2.72)">
								<stop  offset="0" style="stop-color:#28067E"/>
								<stop  offset="0.16" style="stop-color:#2D0A83"/>
								<stop  offset="0.35" style="stop-color:#3A1691"/>
								<stop  offset="0.56" style="stop-color:#502AA9"/>
								<stop  offset="0.77" style="stop-color:#6E47CA"/>
								<stop  offset="0.99" style="stop-color:#956AF4"/>
								<stop  offset="1" style="stop-color:#976CF6"/>
							</linearGradient>
							<polygon class="st48" points="712.6,362.3 634.2,362.3 611.5,263 650.9,263 							"/>
							
								<linearGradient id="SVGID_40_" gradientUnits="userSpaceOnUse" x1="780.2975" y1="318.9618" x2="769.0154" y2="-23.5112" gradientTransform="matrix(1 0 0 1 0 2.72)">
								<stop  offset="0" style="stop-color:#28067E"/>
								<stop  offset="0.16" style="stop-color:#2D0A83"/>
								<stop  offset="0.35" style="stop-color:#3A1691"/>
								<stop  offset="0.56" style="stop-color:#502AA9"/>
								<stop  offset="0.77" style="stop-color:#6E47CA"/>
								<stop  offset="0.99" style="stop-color:#956AF4"/>
								<stop  offset="1" style="stop-color:#976CF6"/>
							</linearGradient>
							<polygon class="st49" points="869.7,362.3 791.2,362.3 690.3,263 729.7,263 							"/>
							
								<linearGradient id="SVGID_41_" gradientUnits="userSpaceOnUse" x1="225.3687" y1="114.3329" x2="600.8756" y2="268.6092" gradientTransform="matrix(1 0 0 1 0 2.72)">
								<stop  offset="0" style="stop-color:#5F90F2"/>
								<stop  offset="1" style="stop-color:#5A56F4"/>
							</linearGradient>
							<polygon class="st50" points="791.2,362.3 712.6,362.3 650.9,263 690.3,263 							"/>
							
								<linearGradient id="SVGID_42_" gradientUnits="userSpaceOnUse" x1="-43.549" y1="182.8325" x2="781.178" y2="555.8099" gradientTransform="matrix(1 0 0 1 59.08 45.86)">
								<stop  offset="0" style="stop-color:#28067E"/>
								<stop  offset="0.16" style="stop-color:#2D0A83"/>
								<stop  offset="0.35" style="stop-color:#3A1691"/>
								<stop  offset="0.56" style="stop-color:#502AA9"/>
								<stop  offset="0.77" style="stop-color:#6E47CA"/>
								<stop  offset="0.99" style="stop-color:#956AF4"/>
								<stop  offset="1" style="stop-color:#976CF6"/>
							</linearGradient>
							<path class="st51" d="M394.5,362.3H316v22.3c0,15.2,12.3,27.5,27.5,27.5l0,0H367c15.2,0,27.5-12.3,27.5-27.5V362.3z"/>
							
								<linearGradient id="SVGID_43_" gradientUnits="userSpaceOnUse" x1="284.1825" y1="294.1537" x2="1126.913" y2="687.1842" gradientTransform="matrix(1 0 0 1 59.08 45.86)">
								<stop  offset="0" style="stop-color:#5F90F2"/>
								<stop  offset="1" style="stop-color:#5A56F4"/>
							</linearGradient>
							<path class="st52" d="M473,362.3h-78.5v22.3c0,15.2,12.3,27.5,27.5,27.5l0,0h23.5c15.2,0,27.5-12.3,27.5-27.5l0,0V362.3z"/>
							
								<linearGradient id="SVGID_44_" gradientUnits="userSpaceOnUse" x1="-22.6738" y1="121.271" x2="802.053" y2="494.2483" gradientTransform="matrix(1 0 0 1 59.08 45.86)">
								<stop  offset="0" style="stop-color:#28067E"/>
								<stop  offset="0.16" style="stop-color:#2D0A83"/>
								<stop  offset="0.35" style="stop-color:#3A1691"/>
								<stop  offset="0.56" style="stop-color:#502AA9"/>
								<stop  offset="0.77" style="stop-color:#6E47CA"/>
								<stop  offset="0.99" style="stop-color:#956AF4"/>
								<stop  offset="1" style="stop-color:#976CF6"/>
							</linearGradient>
							<path class="st53" d="M551.5,362.3H473v22.3c0,15.2,12.3,27.5,27.5,27.5H524c15.2,0,27.5-12.3,27.5-27.5V362.3z"/>
							
								<linearGradient id="SVGID_45_" gradientUnits="userSpaceOnUse" x1="306.9276" y1="230.2305" x2="1149.4364" y2="623.1501" gradientTransform="matrix(1 0 0 1 59.08 45.86)">
								<stop  offset="0" style="stop-color:#5F90F4"/>
								<stop  offset="1" style="stop-color:#5A56F4"/>
							</linearGradient>
							<path class="st54" d="M634.2,362.3h-82.6v20.8c0,16,13,28.9,28.9,28.9l0,0h24.8c16,0,28.9-13,28.9-28.9L634.2,362.3z"/>
							
								<linearGradient id="SVGID_46_" gradientUnits="userSpaceOnUse" x1="-1.2372" y1="58.0638" x2="823.4897" y2="431.0413" gradientTransform="matrix(1 0 0 1 59.08 45.86)">
								<stop  offset="0" style="stop-color:#28067E"/>
								<stop  offset="0.16" style="stop-color:#2D0A83"/>
								<stop  offset="0.35" style="stop-color:#3A1691"/>
								<stop  offset="0.56" style="stop-color:#502AA9"/>
								<stop  offset="0.77" style="stop-color:#6E47CA"/>
								<stop  offset="0.99" style="stop-color:#956AF4"/>
								<stop  offset="1" style="stop-color:#976CF6"/>
							</linearGradient>
							<path class="st55" d="M712.7,362.3h-78.5v22.3c0,15.2,12.3,27.5,27.5,27.5c0,0,0,0,0.1,0h23.5c15.2,0,27.4-12.3,27.4-27.5
								V362.3z"/>
							
								<linearGradient id="SVGID_47_" gradientUnits="userSpaceOnUse" x1="19.6227" y1="-3.5046" x2="844.3495" y2="369.4727" gradientTransform="matrix(1 0 0 1 59.08 45.86)">
								<stop  offset="0" style="stop-color:#28067E"/>
								<stop  offset="0.16" style="stop-color:#2D0A83"/>
								<stop  offset="0.35" style="stop-color:#3A1691"/>
								<stop  offset="0.56" style="stop-color:#502AA9"/>
								<stop  offset="0.77" style="stop-color:#6E47CA"/>
								<stop  offset="0.99" style="stop-color:#956AF4"/>
								<stop  offset="1" style="stop-color:#976CF6"/>
							</linearGradient>
							<path class="st56" d="M869.7,362.3h-78.5v22.3c0,15.2,12.3,27.5,27.5,27.5l0,0h23.5c15.2,0,27.5-12.3,27.5-27.5l0,0V362.3z"
								/>
							
								<linearGradient id="SVGID_48_" gradientUnits="userSpaceOnUse" x1="329.1759" y1="166.7363" x2="1171.9064" y2="559.7668" gradientTransform="matrix(1 0 0 1 59.08 45.86)">
								<stop  offset="0" style="stop-color:#5F90F2"/>
								<stop  offset="1" style="stop-color:#5A56F4"/>
							</linearGradient>
							<path class="st57" d="M791.2,362.3h-78.5v22.3c0,15.2,12.3,27.5,27.5,27.5h23.5c15.2,0,27.5-12.3,27.5-27.5V362.3z"/>
							
								<linearGradient id="SVGID_49_" gradientUnits="userSpaceOnUse" x1="532.8371" y1="216.1598" x2="532.5417" y2="198.6918" gradientTransform="matrix(1 0 0 1 59.08 45.86)">
								<stop  offset="0" style="stop-color:#28067E"/>
								<stop  offset="0.16" style="stop-color:#2D0A83"/>
								<stop  offset="0.35" style="stop-color:#3A1691"/>
								<stop  offset="0.56" style="stop-color:#502AA9"/>
								<stop  offset="0.77" style="stop-color:#6E47CA"/>
								<stop  offset="0.99" style="stop-color:#956AF4"/>
								<stop  offset="1" style="stop-color:#976CF6"/>
							</linearGradient>
							<path class="st58" d="M729.6,263H453.9v-9.8c0-6,4.9-10.8,10.8-10.8H719c6,0,10.8,4.8,10.8,10.8l0,0L729.6,263z"/>
							<g>
								<g>
									<g>
										<g>
											<defs>
												<path id="SVGID_50_" d="M729.6,263H453.9v-9.8c0-6,4.9-10.8,10.8-10.8H719c6,0,10.8,4.8,10.8,10.8l0,0L729.6,263z"/>
											</defs>
											<clipPath id="SVGID_51_">
												<use xlink:href="#SVGID_50_"  style="overflow:visible;"/>
											</clipPath>
											<g class="st59">
												
													<radialGradient id="SVGID_52_" cx="-575.5056" cy="1612.731" r="57.3527" gradientTransform="matrix(-3.05 0 0 6.000000e-02 -1151.8359 146.6616)" gradientUnits="userSpaceOnUse">
													<stop  offset="0" style="stop-color:#FFFFFF"/>
													<stop  offset="0.13" style="stop-color:#E6E6E6"/>
													<stop  offset="0.4" style="stop-color:#A4A4A4"/>
													<stop  offset="0.78" style="stop-color:#3C3C3C"/>
													<stop  offset="1" style="stop-color:#000000"/>
												</radialGradient>
												<ellipse class="st60" cx="605.5" cy="242.9" rx="175" ry="3.4"/>
											</g>
										</g>
									</g>
								</g>
							</g>
							<g>
								<g>
									<g>
										<g>
											<defs>
												<polygon id="SVGID_53_" points="453.9,263 316,362.3 316.5,365.5 870.1,365.5 870.1,362.3 729.6,263 729.6,259.8 
													455.2,259.8 												"/>
											</defs>
											<clipPath id="SVGID_54_">
												<use xlink:href="#SVGID_53_"  style="overflow:visible;"/>
											</clipPath>
											<g class="st61">
												
													<radialGradient id="SVGID_55_" cx="-1509.3751" cy="2592.7036" r="86.9708" gradientTransform="matrix(1 0 0 1 0 2.72)" gradientUnits="userSpaceOnUse">
													<stop  offset="0" style="stop-color:#FFFFFF"/>
													<stop  offset="0.13" style="stop-color:#E6E6E6"/>
													<stop  offset="0.4" style="stop-color:#A4A4A4"/>
													<stop  offset="0.78" style="stop-color:#3C3C3C"/>
													<stop  offset="1" style="stop-color:#000000"/>
												</radialGradient>
												<ellipse class="st62" cx="612" cy="361.7" rx="343.6" ry="3.7"/>
												
													<radialGradient id="SVGID_56_" cx="-550.6972" cy="2413.2109" r="87.0475" gradientTransform="matrix(-3.95 0 0 4.000000e-02 -1559.1541 164.8444)" gradientUnits="userSpaceOnUse">
													<stop  offset="0" style="stop-color:#FFFFFF"/>
													<stop  offset="0.13" style="stop-color:#E6E6E6"/>
													<stop  offset="0.4" style="stop-color:#A4A4A4"/>
													<stop  offset="0.78" style="stop-color:#3C3C3C"/>
													<stop  offset="1" style="stop-color:#000000"/>
												</radialGradient>
												<path class="st63" d="M272.5,262.2c0,2.1,153.8,3.7,343.6,3.7s343.6-1.7,343.6-3.7s-153.8-3.7-343.6-3.7
													S272.5,260.2,272.5,262.2z"/>
											</g>
										</g>
									</g>
								</g>
							</g>
						</g>
					</g>
				</g>
			</g>
		</g>
	</g>
</g>
</svg>
