<svg id="OBJECTS" xmlns="http://www.w3.org/2000/svg" xmlns:xlink="http://www.w3.org/1999/xlink" viewBox="0 0 199.83 164.34"><defs><style>.cls-1{fill:#fff;}.cls-2,.cls-9{fill:#eef2ff;}.cls-3{fill:#6473f9;}.cls-4{fill:#f5db4a;}.cls-5{fill:#a1aeef;}.cls-6{fill:#d8dcfd;}.cls-10,.cls-12,.cls-14,.cls-18,.cls-7{fill:none;}.cls-7{stroke:#d8dcfd;stroke-width:0.96px;}.cls-12,.cls-7{stroke-miterlimit:10;}.cls-8{fill:#9a7ee8;}.cls-9{font-size:6px;font-family:GurmukhiSangamMN-Bold, Gurmukhi Sangam MN;font-weight:700;}.cls-10,.cls-14{stroke:#fff;}.cls-10,.cls-14,.cls-18{stroke-linecap:round;stroke-linejoin:round;}.cls-10{stroke-width:0.99px;}.cls-11{fill:#dd5213;}.cls-12,.cls-18{stroke:#000;}.cls-12{stroke-width:0.97px;}.cls-13{fill:#e6a57d;}.cls-14{stroke-width:1.17px;}.cls-15{fill:#8294dc;}.cls-16{clip-path:url(#clip-path);}.cls-17{fill:#e9cd44;}.cls-18{stroke-width:0.41px;}</style><clipPath id="clip-path" transform="translate(-3.67 -7.68)"><path class="cls-1" d="M135.41,43.78s1.37.38,1.43,1.34c.07,1.2-1.19,1-1.19,1A1.72,1.72,0,0,1,135.41,43.78Z"/></clipPath></defs><ellipse class="cls-2" cx="167.12" cy="143.66" rx="5.29" ry="6.18"/><ellipse class="cls-2" cx="26.04" cy="75.06" rx="19.79" ry="23.13"/><path class="cls-3" d="M7.37,117.76a2,2,0,0,1-1.85,2.17,2.19,2.19,0,0,1,0-4.33A2,2,0,0,1,7.37,117.76Z" transform="translate(-3.67 -7.68)"/><path class="cls-4" d="M198.8,97.64a2.2,2.2,0,1,1-2.17-2.54A2.37,2.37,0,0,1,198.8,97.64Z" transform="translate(-3.67 -7.68)"/><ellipse class="cls-3" cx="98.54" cy="2.39" rx="2.05" ry="2.39"/><ellipse class="cls-2" cx="52.06" cy="143.89" rx="4.64" ry="5.43"/><ellipse class="cls-2" cx="169.77" cy="23.07" rx="17.74" ry="20.73"/><polygon class="cls-5" points="29.33 136.38 13.39 133.61 19.3 151.83 29.33 136.38"/><path class="cls-6" d="M172.28,121.27v-84c0-7.7-5.34-13.94-11.93-13.94H37.41c-6.58,0-11.92,6.24-11.92,13.94v84.05c0,7.69,5.34,13.93,11.92,13.93H160.35C166.94,135.2,172.28,129,172.28,121.27Z" transform="translate(-3.67 -7.68)"/><rect class="cls-1" x="47.56" y="9.84" width="103.4" height="138.81" rx="15.7" transform="translate(174.83 -27.7) rotate(90)"/><rect class="cls-7" x="36.15" y="32.94" width="60.31" height="74.94" rx="8.7"/><rect class="cls-7" x="101.55" y="32.94" width="56.58" height="43.04" rx="8.7"/><rect class="cls-7" x="101.55" y="81.97" width="56.58" height="25.84" rx="8.7"/><rect class="cls-8" x="43.83" y="82.15" width="44.86" height="14.05" rx="3.6"/><text class="cls-9" transform="translate(52.82 91.36)">Flash Mall</text><rect class="cls-5" x="43.83" y="39.55" width="44.86" height="37.14" rx="4.7"/><path class="cls-1" d="M76.55,60.88H73.78V58.43c0-2.55-1.55-4.84-3.71-5.21-2.7-.46-5,2-5,5.05v2.61H62.27a.44.44,0,0,0-.4.47v11.2c0,2.52,1.75,4.57,3.91,4.57H73c2.16,0,3.91-2.05,3.91-4.57V61.35A.44.44,0,0,0,76.55,60.88ZM65.84,58.27c0-2.61,2-4.67,4.37-4.07A4.18,4.18,0,0,1,73,58.4v2.48H65.84ZM76.16,72.55A3.41,3.41,0,0,1,73,76.19H65.78a3.41,3.41,0,0,1-3.12-3.64V61.81H65v3.33a1.46,1.46,0,0,0-.75,1.69,1.3,1.3,0,0,0,.83,1,1.24,1.24,0,0,0,1.51-1.34,1.39,1.39,0,0,0-.79-1.31V61.81H73v3.33a1.46,1.46,0,0,0-.75,1.69,1.3,1.3,0,0,0,.82,1,1.25,1.25,0,0,0,1.52-1.34,1.39,1.39,0,0,0-.79-1.31V61.81h2.38V72.55Z" transform="translate(-3.67 -7.68)"/><ellipse class="cls-4" cx="86.81" cy="40.97" rx="4.66" ry="5.44"/><polyline class="cls-10" points="84.9 41.02 86.65 42.51 88.72 39.43"/><path class="cls-11" d="M48.76,33.13a1.74,1.74,0,1,1-1.72-2A1.88,1.88,0,0,1,48.76,33.13Z" transform="translate(-3.67 -7.68)"/><path class="cls-4" d="M55.42,33.13a1.74,1.74,0,1,1-1.71-2A1.88,1.88,0,0,1,55.42,33.13Z" transform="translate(-3.67 -7.68)"/><path class="cls-5" d="M62.08,33.13a1.73,1.73,0,1,1-1.71-2A1.87,1.87,0,0,1,62.08,33.13Z" transform="translate(-3.67 -7.68)"/><ellipse class="cls-11" cx="20.76" cy="25.52" rx="11.02" ry="12.88"/><path class="cls-1" d="M28.18,29.89a2,2,0,0,0-3.23,0l-.58.69-.6-.69a2.07,2.07,0,0,0-3.24,0,3,3,0,0,0,0,3.78l2.22,2.56v0a2.23,2.23,0,0,0,1.25.73,2.09,2.09,0,0,0,2-.77l2.19-2.61A3,3,0,0,0,28.18,29.89Z" transform="translate(-3.67 -7.68)"/><path class="cls-3" d="M190.84,72.88h-10.5a2.78,2.78,0,0,1-2.54-3h0a2.78,2.78,0,0,1,2.54-3h10.5a2.77,2.77,0,0,1,2.54,3h0A2.78,2.78,0,0,1,190.84,72.88Z" transform="translate(-3.67 -7.68)"/><path class="cls-1" d="M183.46,69.92a.71.71,0,0,1-.65.76.7.7,0,0,1-.65-.75.66.66,0,1,1,1.3,0Z" transform="translate(-3.67 -7.68)"/><path class="cls-1" d="M186.24,69.91a.66.66,0,1,1-1.3,0,.73.73,0,0,1,.65-.77A.71.71,0,0,1,186.24,69.91Z" transform="translate(-3.67 -7.68)"/><path class="cls-1" d="M189,69.9a.71.71,0,0,1-.65.76.7.7,0,0,1-.65-.75.73.73,0,0,1,.65-.77A.72.72,0,0,1,189,69.9Z" transform="translate(-3.67 -7.68)"/><ellipse class="cls-5" cx="95.92" cy="159.75" rx="3.93" ry="4.59"/><ellipse class="cls-5" cx="72.72" cy="159.75" rx="3.93" ry="4.59"/><path class="cls-12" d="M135,92.91l-9,2.14a5.23,5.23,0,0,0-3.82,4.22l-8,39H69.52c-2.77,0-5.21-2.12-6-5.22l-4.46-22.78,62.1-5.72" transform="translate(-3.67 -7.68)"/><path class="cls-12" d="M61.9,124.85,117.77,121l-6.72,32.23c-1.13,5.61-5.41,9.58-10.34,9.58H68.12" transform="translate(-3.67 -7.68)"/><line class="cls-12" x1="104.11" y1="98.12" x2="98.72" y2="130.6"/><line class="cls-12" x1="68.79" y1="101.37" x2="71.79" y2="130.6"/><line class="cls-12" x1="86.16" y1="99.77" x2="86.16" y2="130.6"/><polygon class="cls-13" points="178.26 126.26 181.61 119.72 194.4 124.97 191.46 130.79 178.26 126.26"/><path d="M195.81,135.69l0,.06a1.38,1.38,0,0,1-1.68.68,2.17,2.17,0,0,0-1.48-.22,1.29,1.29,0,0,0-.94,1.4,60.86,60.86,0,0,1-.25,12.73,3.76,3.76,0,0,0,.79,3l.36.44,10-20-5.49-2.14a1.06,1.06,0,0,0-1.62.09h0a1.55,1.55,0,0,0-.07,1.79l.35.51A1.59,1.59,0,0,1,195.81,135.69Z" transform="translate(-3.67 -7.68)"/><path class="cls-6" d="M202.59,133.81a.54.54,0,0,1,.57.1,1.16,1.16,0,0,1,.22,1.35l-9.08,18.22a1.05,1.05,0,0,1-1.72.33h0Z" transform="translate(-3.67 -7.68)"/><path class="cls-14" d="M191.9,140.8s.31-.55,1.56-.29" transform="translate(-3.67 -7.68)"/><path class="cls-14" d="M191.86,142.28s.31-.54,1.56-.28" transform="translate(-3.67 -7.68)"/><path class="cls-14" d="M191.86,144s.3-.55,1.56-.29" transform="translate(-3.67 -7.68)"/><path class="cls-11" d="M200.41,132.69a18.3,18.3,0,0,0-3.26,12l5.44-10.88A5.77,5.77,0,0,0,200.41,132.69Z" transform="translate(-3.67 -7.68)"/><path class="cls-15" d="M149.41,101.2,156,123.51a8.19,8.19,0,0,0,4,5.15l0,0L187.3,139.1l4.92-12.69-25.69-11.59s-6.66-28.74-9.1-31.58Z" transform="translate(-3.67 -7.68)"/><polygon class="cls-13" points="142.44 141.97 148.96 142.03 151.59 157.57 145.8 157.57 142.44 141.97"/><path d="M151.87,164.52h-.06a1.57,1.57,0,0,1-1.35-1.34,3.21,3.21,0,0,0-.6-1.61,1,1,0,0,0-1.5-.23c-1.64,1.31-5.58,4.55-9.51,6.21a3.25,3.25,0,0,0-1.85,2.33l-.13.59,19.83-.08-1.22-6.61a1.37,1.37,0,0,0-.89-1.58h0a1.14,1.14,0,0,0-1.35.83l-.2.61A1.2,1.2,0,0,1,151.87,164.52Z" transform="translate(-3.67 -7.68)"/><path class="cls-6" d="M156.7,170.39a.8.8,0,0,1,.21.63.93.93,0,0,1-.88.9L138,172a1.28,1.28,0,0,1-1.12-1.56h0Z" transform="translate(-3.67 -7.68)"/><path class="cls-14" d="M146.11,163.18s.56,0,1,1.42" transform="translate(-3.67 -7.68)"/><path class="cls-14" d="M145,163.89s.56,0,1,1.43" transform="translate(-3.67 -7.68)"/><path class="cls-14" d="M143.74,164.75s.56,0,1,1.43" transform="translate(-3.67 -7.68)"/><path class="cls-11" d="M156.41,167.63a12.54,12.54,0,0,0-10.5,2.8l10.79,0A8.5,8.5,0,0,0,156.41,167.63Z" transform="translate(-3.67 -7.68)"/><path class="cls-5" d="M147.28,89.94l-8.76,28.53a11.88,11.88,0,0,0-.42,4.93l7,34.56,11.78-1.76-5.55-33.86s12-24,11.55-33.71Z" transform="translate(-3.67 -7.68)"/><polygon class="cls-13" points="135.98 44.31 139.12 51.92 143.9 47.39 139.23 38.72 135.98 44.31"/><polygon points="137.25 47.39 138.47 42.94 136.07 44.57 137.25 47.39"/><path class="cls-13" d="M136.91,36.3s-3.06.86-2.95,5.43c0,0,0,1.74.21,6.5.1,2.51,1.64,5.65,4.34,5.24A7.46,7.46,0,0,0,142.37,51L144,48.92c3.85-5.81-.52-14.24-6.68-12.74Z" transform="translate(-3.67 -7.68)"/><path class="cls-13" d="M134.38,45.17l-1.12,2.61c-.12.22,0,.55.22.56l1.42.15Z" transform="translate(-3.67 -7.68)"/><path class="cls-1" d="M135.41,43.78s1.37.38,1.43,1.34c.07,1.2-1.19,1-1.19,1A1.72,1.72,0,0,1,135.41,43.78Z" transform="translate(-3.67 -7.68)"/><g class="cls-16"><path d="M135.61,43.47a2.92,2.92,0,0,1-.16,2.9h0l-.58,0-.07-1.91Z" transform="translate(-3.67 -7.68)"/></g><path d="M135.2,43.35a2.84,2.84,0,0,1,.64.24,2.45,2.45,0,0,1,.53.38,1.94,1.94,0,0,1,.58,1.12.11.11,0,0,1-.1.13.12.12,0,0,1-.12-.08,1.52,1.52,0,0,0-.66-.79,1.8,1.8,0,0,0-.47-.2,2.14,2.14,0,0,0-.48-.07.37.37,0,0,1-.37-.37.36.36,0,0,1,.36-.37Z" transform="translate(-3.67 -7.68)"/><path class="cls-1" d="M134.67,49.45l1.34,0S135.11,51,134.67,49.45Z" transform="translate(-3.67 -7.68)"/><path d="M138.1,42.67a.41.41,0,0,1-.43,0,12.29,12.29,0,0,0-1.86-.78c-1.5-.5-.79-1.59,0-1.45a4.28,4.28,0,0,1,2.36,1.6C138.39,42.41,138.26,42.59,138.1,42.67Z" transform="translate(-3.67 -7.68)"/><path class="cls-11" d="M142.77,45.86A3.88,3.88,0,0,0,145,50.41s6.92-11.09-3.25-14.83l-.56,1.14Z" transform="translate(-3.67 -7.68)"/><path class="cls-11" d="M145.84,37.32c0,.53-.47,4.49-.47,4.49l-3.77,3.78s-2.13-3.54-1.35-7.08C140.25,38.51,145.9,35.36,145.84,37.32Z" transform="translate(-3.67 -7.68)"/><path class="cls-13" d="M144.74,45a2.15,2.15,0,0,1-1.56,2.48,1.92,1.92,0,0,1-2.12-1.82,2.15,2.15,0,0,1,1.55-2.48A1.93,1.93,0,0,1,144.74,45Z" transform="translate(-3.67 -7.68)"/><path class="cls-11" d="M141.08,34.07s6-.33,7.32,3.11c2,5.11-.59,8.73-3.42,13.23l.39-8.6Z" transform="translate(-3.67 -7.68)"/><path class="cls-11" d="M140.82,39.56s-1.88-1.7-3.91-1.23-4.29.73-4.48-2c-.25-3.54,9.28-7.76,15.41-.05l-4.85,3Z" transform="translate(-3.67 -7.68)"/><path class="cls-13" d="M112,58.54c2.58,1.65,4.74,1.51,5.73-.8a5.07,5.07,0,0,0-1.8-6.29c-2-1.16-3.68-.65-5,1.46A4,4,0,0,0,112,58.54Z" transform="translate(-3.67 -7.68)"/><path class="cls-13" d="M112.43,51.5s.32-1.54,2.6-1.19c2.09.31,4.25,3.06,2.73,7.43Z" transform="translate(-3.67 -7.68)"/><path class="cls-13" d="M112.72,52.69l-4-3.15a1,1,0,0,1-.3-1.19h0a.62.62,0,0,1,.85-.34L114,50.48Z" transform="translate(-3.67 -7.68)"/><path class="cls-13" d="M132.89,62,117,55.66l-2,3.35,15,10.41c2.15,1.46,4.38-.32,5.11-3.1h0C135.59,64.16,134.64,63,132.89,62Z" transform="translate(-3.67 -7.68)"/><path class="cls-13" d="M146.62,58.17l-16.36,4.36c-2.13,1-3.37,1.33-2.63,3.89h0c.78,2.68,3.27,4.12,5.57,3.23l15.89-2.8a5,5,0,0,0,3.42-5.39h0C152.12,57.71,149.6,56.71,146.62,58.17Z" transform="translate(-3.67 -7.68)"/><polygon class="cls-17" points="133.81 52.92 136.77 63.28 146.57 61.62 145.87 49.49 133.81 52.92"/><path class="cls-4" d="M142.52,58.86l3.08,36.27c12.86,2.65,18.33-4.3,18.33-4.3s-3.56-12.39-6.2-21.18C155,60.41,150.83,57,147.57,55.08Z" transform="translate(-3.67 -7.68)"/><path class="cls-13" d="M147.57,55.08s-2.4,5.84-4.77,6.88l-.3-3.18,3.22-2.66Z" transform="translate(-3.67 -7.68)"/><polygon class="cls-13" points="147.57 72.8 131.82 79.72 131.81 83.99 150.25 79.97 147.57 72.8"/><path class="cls-13" d="M129.52,91.58a5.17,5.17,0,0,1,3.31-3.34l3.41-1.15L137.78,89l-1.12,1.26c.32,1.76-.14,4.66-1.92,5.81C132.69,97.37,128.71,94.22,129.52,91.58Z" transform="translate(-3.67 -7.68)"/><path class="cls-13" d="M146.3,68.81l3.54,16.26a3.64,3.64,0,0,0,4.08,2.58h0a3.52,3.52,0,0,0,2.39-4.11l-2.67-16.36Z" transform="translate(-3.67 -7.68)"/><path class="cls-4" d="M148.93,57.48a2.92,2.92,0,0,0-2.59,1.15,7.71,7.71,0,0,0-1.57,6.08A66.6,66.6,0,0,0,147,75.19l8.22-1.55S154.4,58.23,148.93,57.48Z" transform="translate(-3.67 -7.68)"/><path class="cls-18" d="M147.69,75h0s-1.4-6-1.72-9.28" transform="translate(-3.67 -7.68)"/></svg>