<svg id="OBJECTS" xmlns="http://www.w3.org/2000/svg" xmlns:xlink="http://www.w3.org/1999/xlink" viewBox="0 0 205.75 164.34"><defs><style>.cls-1{fill:#fff;}.cls-10,.cls-2{fill:#eef2ff;}.cls-3{fill:#6473f9;}.cls-4{fill:#f5db4a;}.cls-5{fill:#a1aeef;}.cls-6{fill:#d8dcfd;}.cls-11,.cls-13,.cls-15,.cls-19,.cls-7,.cls-8{fill:none;}.cls-8{stroke:#d8dcfd;stroke-width:0.96px;}.cls-13,.cls-8{stroke-miterlimit:10;}.cls-9{fill:#9a7ee8;}.cls-10{font-size:6px;font-family:GurmukhiSangamMN-Bold, Gurmukhi Sangam MN;font-weight:700;}.cls-11,.cls-15{stroke:#fff;}.cls-11,.cls-15,.cls-19{stroke-linecap:round;stroke-linejoin:round;}.cls-11{stroke-width:0.99px;}.cls-12{fill:#dd5213;}.cls-13,.cls-19{stroke:#000;}.cls-13{stroke-width:0.97px;}.cls-14{fill:#e6a57d;}.cls-15{stroke-width:1.17px;}.cls-16{fill:#8294dc;}.cls-17{clip-path:url(#clip-path);}.cls-18{fill:#e9cd44;}.cls-19{stroke-width:0.41px;}</style><clipPath id="clip-path" transform="translate(2.9 -7.68)"><path class="cls-1" d="M132.73,43.78s1.42.38,1.48,1.34c.07,1.2-1.23,1-1.23,1A1.7,1.7,0,0,1,132.73,43.78Z"/></clipPath></defs><ellipse class="cls-2" cx="172.07" cy="143.66" rx="5.44" ry="6.18"/><ellipse class="cls-2" cx="26.82" cy="75.06" rx="20.37" ry="23.13"/><path class="cls-3" d="M.91,117.76A2.05,2.05,0,0,1-1,119.93a2,2,0,0,1-1.9-2.17A2,2,0,0,1-1,115.6,2.05,2.05,0,0,1,.91,117.76Z" transform="translate(2.9 -7.68)"/><path class="cls-4" d="M198,97.64a2.25,2.25,0,1,1-2.24-2.54A2.39,2.39,0,0,1,198,97.64Z" transform="translate(2.9 -7.68)"/><ellipse class="cls-3" cx="101.46" cy="2.39" rx="2.11" ry="2.39"/><ellipse class="cls-2" cx="53.6" cy="143.89" rx="4.78" ry="5.43"/><ellipse class="cls-2" cx="174.79" cy="23.07" rx="18.26" ry="20.73"/><polygon class="cls-5" points="30.19 136.38 13.79 133.61 19.87 151.83 30.19 136.38"/><path class="cls-6" d="M170.69,121.27v-84c0-7.7-5.49-13.94-12.27-13.94H31.84c-6.78,0-12.28,6.24-12.28,13.94v84.05c0,7.69,5.5,13.93,12.28,13.93H158.41C165.2,135.2,170.69,129,170.69,121.27Z" transform="translate(2.9 -7.68)"/><rect class="cls-7" x="43.81" y="7.78" width="103.4" height="142.92" rx="15.7" transform="translate(177.66 -23.96) rotate(90)"/><rect class="cls-8" x="37.22" y="32.94" width="62.09" height="74.94" rx="8.7"/><rect class="cls-8" x="104.56" y="32.94" width="58.26" height="43.04" rx="8.7"/><rect class="cls-8" x="104.56" y="81.97" width="58.26" height="25.84" rx="8.7"/><rect class="cls-9" x="45.13" y="82.15" width="46.19" height="14.05" rx="3.6"/><text class="cls-10" transform="translate(54.38 91.36) scale(1.03 1)">Flash Mall</text><rect class="cls-5" x="45.13" y="39.55" width="46.19" height="37.14" rx="4.7"/><path class="cls-1" d="M72.14,60.88H69.28V58.43c0-2.55-1.59-4.84-3.82-5.21-2.78-.46-5.17,2-5.17,5.05v2.61H57.43a.44.44,0,0,0-.41.47v11.2a4.32,4.32,0,0,0,4,4.57h7.48a4.33,4.33,0,0,0,4-4.57V61.35A.45.45,0,0,0,72.14,60.88Zm-11-2.61c0-2.61,2.12-4.67,4.51-4.07a4.19,4.19,0,0,1,2.85,4.2v2.48H61.1ZM71.73,72.55a3.45,3.45,0,0,1-3.21,3.64H61a3.45,3.45,0,0,1-3.21-3.64V61.81h2.46v3.33a1.43,1.43,0,0,0-.78,1.69,1.32,1.32,0,0,0,.85,1,1.27,1.27,0,0,0,1.56-1.34,1.38,1.38,0,0,0-.82-1.31V61.81h7.36v3.33a1.44,1.44,0,0,0-.77,1.69,1.31,1.31,0,0,0,.84,1,1.27,1.27,0,0,0,1.56-1.34,1.39,1.39,0,0,0-.81-1.31V61.81h2.45V72.55Z" transform="translate(2.9 -7.68)"/><ellipse class="cls-4" cx="89.38" cy="40.97" rx="4.79" ry="5.44"/><polyline class="cls-11" points="87.42 41.02 89.21 42.51 91.35 39.43"/><path class="cls-12" d="M43.52,33.13a1.78,1.78,0,1,1-1.77-2A1.9,1.9,0,0,1,43.52,33.13Z" transform="translate(2.9 -7.68)"/><path class="cls-4" d="M50.38,33.13a1.78,1.78,0,1,1-1.77-2A1.9,1.9,0,0,1,50.38,33.13Z" transform="translate(2.9 -7.68)"/><path class="cls-5" d="M57.24,33.13a1.78,1.78,0,1,1-1.77-2A1.9,1.9,0,0,1,57.24,33.13Z" transform="translate(2.9 -7.68)"/><path class="cls-3" d="M189.81,72.88H179a2.81,2.81,0,0,1-2.62-3h0A2.81,2.81,0,0,1,179,67h10.81a2.81,2.81,0,0,1,2.61,3h0A2.81,2.81,0,0,1,189.81,72.88Z" transform="translate(2.9 -7.68)"/><path class="cls-1" d="M182.2,69.92a.67.67,0,1,1-1.33,0,.67.67,0,1,1,1.33,0Z" transform="translate(2.9 -7.68)"/><path class="cls-1" d="M185.07,69.91a.67.67,0,1,1-1.34,0,.74.74,0,0,1,.67-.77A.72.72,0,0,1,185.07,69.91Z" transform="translate(2.9 -7.68)"/><path class="cls-1" d="M187.94,69.9a.72.72,0,0,1-.67.76.71.71,0,0,1-.67-.75.74.74,0,0,1,.67-.77A.72.72,0,0,1,187.94,69.9Z" transform="translate(2.9 -7.68)"/><ellipse class="cls-5" cx="98.76" cy="159.75" rx="4.05" ry="4.59"/><ellipse class="cls-5" cx="74.87" cy="159.75" rx="4.05" ry="4.59"/><path class="cls-13" d="M132.36,92.91l-9.26,2.14a5.26,5.26,0,0,0-3.93,4.22l-8.23,39h-46a6.61,6.61,0,0,1-6.18-5.22l-4.59-22.78,63.93-5.72" transform="translate(2.9 -7.68)"/><path class="cls-13" d="M57.05,124.85,114.57,121l-6.92,32.23c-1.16,5.61-5.57,9.58-10.64,9.58H63.45" transform="translate(2.9 -7.68)"/><line class="cls-13" x1="107.19" y1="98.12" x2="101.64" y2="130.6"/><line class="cls-13" x1="70.83" y1="101.37" x2="73.91" y2="130.6"/><line class="cls-13" x1="88.71" y1="99.77" x2="88.71" y2="130.6"/><polygon class="cls-14" points="183.54 126.26 186.99 119.72 200.15 124.97 197.13 130.79 183.54 126.26"/><path d="M194.93,135.69l0,.06a1.43,1.43,0,0,1-1.72.68,2.32,2.32,0,0,0-1.53-.22,1.29,1.29,0,0,0-1,1.4,58.33,58.33,0,0,1-.26,12.73,3.7,3.7,0,0,0,.81,3l.38.44,10.3-20-5.65-2.14a1.11,1.11,0,0,0-1.67.09h0a1.52,1.52,0,0,0-.07,1.79l.36.51A1.55,1.55,0,0,1,194.93,135.69Z" transform="translate(2.9 -7.68)"/><path class="cls-6" d="M201.9,133.81a.57.57,0,0,1,.59.1,1.11,1.11,0,0,1,.22,1.35l-9.34,18.22a1.1,1.1,0,0,1-1.77.33h0Z" transform="translate(2.9 -7.68)"/><path class="cls-15" d="M190.9,140.8s.31-.55,1.6-.29" transform="translate(2.9 -7.68)"/><path class="cls-15" d="M190.86,142.28s.32-.54,1.61-.28" transform="translate(2.9 -7.68)"/><path class="cls-15" d="M190.85,144s.32-.55,1.61-.29" transform="translate(2.9 -7.68)"/><path class="cls-12" d="M199.66,132.69a18,18,0,0,0-3.36,12l5.6-10.88A5.94,5.94,0,0,0,199.66,132.69Z" transform="translate(2.9 -7.68)"/><path class="cls-16" d="M147.15,101.2l6.78,22.31a8.21,8.21,0,0,0,4.16,5.15l0,0,28,10.42,5.07-12.69-26.45-11.59s-6.86-28.74-9.37-31.58Z" transform="translate(2.9 -7.68)"/><polygon class="cls-14" points="146.66 141.97 153.37 142.03 156.07 157.57 150.11 157.57 146.66 141.97"/><path d="M149.68,164.52h-.06a1.6,1.6,0,0,1-1.39-1.34,3.15,3.15,0,0,0-.61-1.61,1.08,1.08,0,0,0-1.56-.23c-1.68,1.31-5.74,4.55-9.79,6.21a3.26,3.26,0,0,0-1.89,2.33l-.14.59,20.41-.08-1.25-6.61a1.36,1.36,0,0,0-.91-1.58h0a1.18,1.18,0,0,0-1.4.83l-.2.61A1.23,1.23,0,0,1,149.68,164.52Z" transform="translate(2.9 -7.68)"/><path class="cls-6" d="M154.65,170.39a.75.75,0,0,1,.22.63.94.94,0,0,1-.91.9l-18.57.11a1.29,1.29,0,0,1-1.15-1.56h0Z" transform="translate(2.9 -7.68)"/><path class="cls-15" d="M143.75,163.18s.58,0,1,1.42" transform="translate(2.9 -7.68)"/><path class="cls-15" d="M142.61,163.89s.58,0,1,1.43" transform="translate(2.9 -7.68)"/><path class="cls-15" d="M141.31,164.75s.58,0,1,1.43" transform="translate(2.9 -7.68)"/><path class="cls-12" d="M154.35,167.63a13.19,13.19,0,0,0-10.8,2.8l11.1,0A8,8,0,0,0,154.35,167.63Z" transform="translate(2.9 -7.68)"/><path class="cls-5" d="M145,89.94l-9,28.53a11.41,11.41,0,0,0-.43,4.93l7.2,34.56,12.13-1.76-5.72-33.86s12.4-24,11.9-33.71Z" transform="translate(2.9 -7.68)"/><polygon class="cls-14" points="140.01 44.31 143.24 51.92 148.16 47.39 143.35 38.72 140.01 44.31"/><polygon points="141.31 47.39 142.57 42.94 140.1 44.57 141.31 47.39"/><path class="cls-14" d="M134.28,36.3s-3.15.86-3,5.43c0,0,0,1.74.21,6.5.1,2.51,1.69,5.65,4.46,5.24a7.74,7.74,0,0,0,4-2.43l1.72-2.12c4-5.81-.53-14.24-6.87-12.74A4.05,4.05,0,0,0,134.28,36.3Z" transform="translate(2.9 -7.68)"/><path class="cls-14" d="M131.68,45.17l-1.15,2.61c-.13.22-.05.55.22.56l1.46.15Z" transform="translate(2.9 -7.68)"/><path class="cls-1" d="M132.73,43.78s1.42.38,1.48,1.34c.07,1.2-1.23,1-1.23,1A1.7,1.7,0,0,1,132.73,43.78Z" transform="translate(2.9 -7.68)"/><g class="cls-17"><path d="M132.94,43.47a2.84,2.84,0,0,1-.16,2.9h0l-.6,0-.07-1.91Z" transform="translate(2.9 -7.68)"/></g><path d="M132.52,43.35a2.84,2.84,0,0,1,.64.24,2.53,2.53,0,0,1,.55.37,1.92,1.92,0,0,1,.61,1.13.11.11,0,0,1-.1.13.12.12,0,0,1-.12-.08,1.6,1.6,0,0,0-.68-.79,2.22,2.22,0,0,0-.48-.2,2.4,2.4,0,0,0-.5-.07.37.37,0,0,1-.37-.37.36.36,0,0,1,.36-.37Z" transform="translate(2.9 -7.68)"/><path class="cls-1" d="M132,49.45l1.38,0S132.42,51,132,49.45Z" transform="translate(2.9 -7.68)"/><path d="M135.5,42.67a.43.43,0,0,1-.44,0,12.69,12.69,0,0,0-1.91-.78c-1.54-.5-.81-1.59,0-1.45a4.38,4.38,0,0,1,2.43,1.6C135.8,42.41,135.67,42.59,135.5,42.67Z" transform="translate(2.9 -7.68)"/><path class="cls-12" d="M140.32,45.86a3.83,3.83,0,0,0,2.27,4.55s7.12-11.09-3.34-14.83l-.58,1.14Z" transform="translate(2.9 -7.68)"/><path class="cls-12" d="M143.47,37.32c0,.53-.48,4.49-.48,4.49l-3.88,3.78s-2.2-3.54-1.4-7.08C137.71,38.51,143.53,35.36,143.47,37.32Z" transform="translate(2.9 -7.68)"/><path class="cls-14" d="M142.34,45a2.15,2.15,0,0,1-1.61,2.48,2,2,0,0,1-2.18-1.82,2.15,2.15,0,0,1,1.6-2.48A2,2,0,0,1,142.34,45Z" transform="translate(2.9 -7.68)"/><path class="cls-12" d="M138.57,34.07s6.15-.33,7.54,3.11c2.08,5.11-.61,8.73-3.52,13.23l.4-8.6Z" transform="translate(2.9 -7.68)"/><path class="cls-12" d="M138.3,39.56a5.19,5.19,0,0,0-4-1.23c-2.08.47-4.42.73-4.61-2-.26-3.54,9.56-7.76,15.86-.05l-5,3Z" transform="translate(2.9 -7.68)"/><path class="cls-14" d="M108.66,58.54c2.66,1.65,4.88,1.51,5.9-.8a5,5,0,0,0-1.85-6.29c-2-1.16-3.79-.65-5.11,1.46A3.94,3.94,0,0,0,108.66,58.54Z" transform="translate(2.9 -7.68)"/><path class="cls-14" d="M109.07,51.5s.33-1.54,2.68-1.19c2.15.31,4.37,3.06,2.81,7.43Z" transform="translate(2.9 -7.68)"/><path class="cls-14" d="M109.37,52.69l-4.12-3.15a1,1,0,0,1-.3-1.19h0a.65.65,0,0,1,.88-.34l4.9,2.47Z" transform="translate(2.9 -7.68)"/><path class="cls-14" d="M130.14,62l-16.4-6.37L111.63,59l15.45,10.41c2.22,1.46,4.51-.32,5.26-3.1h0C132.93,64.16,132,63,130.14,62Z" transform="translate(2.9 -7.68)"/><path class="cls-14" d="M144.28,58.17l-16.85,4.36c-2.19,1-3.47,1.33-2.7,3.89h0a4.44,4.44,0,0,0,5.73,3.23l16.36-2.8a5,5,0,0,0,3.52-5.39h0C149.94,57.71,147.35,56.71,144.28,58.17Z" transform="translate(2.9 -7.68)"/><polygon class="cls-18" points="137.77 52.92 140.82 63.28 150.91 61.62 150.18 49.49 137.77 52.92"/><path class="cls-4" d="M140.06,58.86l3.17,36.27c13.23,2.65,18.87-4.3,18.87-4.3s-3.66-12.39-6.38-21.18c-2.86-9.24-7.11-12.65-10.46-14.57Z" transform="translate(2.9 -7.68)"/><path class="cls-14" d="M145.26,55.08s-2.48,5.84-4.92,6.88L140,58.78l3.33-2.66Z" transform="translate(2.9 -7.68)"/><polygon class="cls-14" points="151.94 72.8 135.72 79.72 135.71 83.99 154.7 79.97 151.94 72.8"/><path class="cls-14" d="M126.67,91.58a5.27,5.27,0,0,1,3.41-3.34l3.51-1.15L135.18,89,134,90.24c.33,1.76-.14,4.66-2,5.81C129.93,97.37,125.84,94.22,126.67,91.58Z" transform="translate(2.9 -7.68)"/><path class="cls-14" d="M143.94,68.81l3.65,16.26a3.76,3.76,0,0,0,4.2,2.58h0a3.51,3.51,0,0,0,2.46-4.11l-2.74-16.36Z" transform="translate(2.9 -7.68)"/><path class="cls-4" d="M146.66,57.48A3.05,3.05,0,0,0,144,58.63a7.59,7.59,0,0,0-1.61,6.08,64.44,64.44,0,0,0,2.33,10.48l8.46-1.55S152.29,58.23,146.66,57.48Z" transform="translate(2.9 -7.68)"/><path class="cls-19" d="M145.38,75h0a94.49,94.49,0,0,1-1.78-9.28" transform="translate(2.9 -7.68)"/></svg>