<svg id="OBJECTS" xmlns="http://www.w3.org/2000/svg" xmlns:xlink="http://www.w3.org/1999/xlink" viewBox="0 0 750 500"><defs><style>.cls-1,.cls-10{fill:#fff;}.cls-2{fill:#836bdd;}.cls-3{fill:url(#linear-gradient);}.cls-4{fill:url(#linear-gradient-2);}.cls-5{fill:url(#linear-gradient-3);}.cls-6{fill:url(#linear-gradient-4);}.cls-7{fill:url(#linear-gradient-5);}.cls-8{fill:#e6f9f7;}.cls-9{fill:#f33c12;}.cls-10{font-size:18.59px;font-family:OpenSans-Semibold, OpenSans Semibold;font-weight:600;}.cls-11{fill:#ff5904;}.cls-12{fill:#e7e6e8;}.cls-13{fill:#2e2f82;}.cls-14{fill:#f7c281;}.cls-15{fill:#f7b369;}.cls-16{fill:url(#linear-gradient-6);}.cls-17{fill:url(#linear-gradient-7);}.cls-18{fill:url(#linear-gradient-8);}.cls-19{fill:url(#linear-gradient-9);}.cls-20{fill:url(#linear-gradient-10);}.cls-21{fill:#7f2418;}.cls-22{fill:#ddd;}.cls-23{fill:#1c92ec;}.cls-24{fill:#262626;}.cls-25{fill:url(#linear-gradient-11);}.cls-26{fill:url(#linear-gradient-12);}.cls-27{fill:url(#linear-gradient-13);}.cls-28{fill:url(#linear-gradient-14);}.cls-29{fill:#f4cc21;}.cls-30{fill:#ff8108;}</style><linearGradient id="linear-gradient" x1="271.09" y1="283.56" x2="348.32" y2="283.56" gradientUnits="userSpaceOnUse"><stop offset="0" stop-color="#1c54d9"/><stop offset="0.49" stop-color="#2979e2"/><stop offset="1" stop-color="#359ceb"/></linearGradient><linearGradient id="linear-gradient-2" x1="301.45" y1="313.76" x2="312.22" y2="313.76" xlink:href="#linear-gradient"/><linearGradient id="linear-gradient-3" x1="333" y1="313.76" x2="343.77" y2="313.76" xlink:href="#linear-gradient"/><linearGradient id="linear-gradient-4" x1="214.41" y1="341.99" x2="214.41" y2="129.44" gradientUnits="userSpaceOnUse"><stop offset="0" stop-color="#2a0378"/><stop offset="0.05" stop-color="#340b8a"/><stop offset="0.15" stop-color="#4319a9"/><stop offset="0.25" stop-color="#5024c2"/><stop offset="0.37" stop-color="#5b2cd5"/><stop offset="0.51" stop-color="#6232e3"/><stop offset="0.68" stop-color="#6636eb"/><stop offset="1" stop-color="#6737ed"/></linearGradient><linearGradient id="linear-gradient-5" x1="214.41" y1="347.45" x2="214.41" y2="164.87" gradientUnits="userSpaceOnUse"><stop offset="0" stop-color="#a8e5f7"/><stop offset="0.01" stop-color="#a9e6f7"/><stop offset="0.23" stop-color="#b7f2fa"/><stop offset="0.5" stop-color="#bff9fc"/><stop offset="1" stop-color="#c1fbfc"/></linearGradient><linearGradient id="linear-gradient-6" x1="205.88" y1="422.13" x2="253.9" y2="422.13" xlink:href="#linear-gradient-4"/><linearGradient id="linear-gradient-7" x1="117.85" y1="298.61" x2="141.9" y2="298.61" xlink:href="#linear-gradient"/><linearGradient id="linear-gradient-8" x1="292.56" y1="235.66" x2="332.04" y2="235.66" xlink:href="#linear-gradient-4"/><linearGradient id="linear-gradient-9" x1="301.05" y1="209.2" x2="323.54" y2="209.2" gradientUnits="userSpaceOnUse"><stop offset="0" stop-color="#fc8800"/><stop offset="0.38" stop-color="#f27112"/><stop offset="1" stop-color="#e34e2d"/></linearGradient><linearGradient id="linear-gradient-10" x1="273.79" y1="351.14" x2="335.92" y2="351.14" xlink:href="#linear-gradient-9"/><linearGradient id="linear-gradient-11" x1="124.56" y1="388.97" x2="172.54" y2="388.97" xlink:href="#linear-gradient-9"/><linearGradient id="linear-gradient-12" x1="124.56" y1="388.97" x2="172.54" y2="388.97" xlink:href="#linear-gradient-9"/><linearGradient id="linear-gradient-13" x1="124.56" y1="417.35" x2="172.54" y2="417.35" xlink:href="#linear-gradient-4"/><linearGradient id="linear-gradient-14" x1="124.56" y1="398.78" x2="172.54" y2="398.78" xlink:href="#linear-gradient-4"/></defs><title>shopLogin</title><rect class="cls-1" width="750" height="500"/><path class="cls-2" d="M690.52,285.44C613.35,258.5,536,222.34,454.61,226.18c-55.6,2.62-108.56,23.87-160.25,45s-104.42,42.8-160,46.25c-48,3-99.35-10-134.38-42.77V500H750V297.47C730,298.35,709.72,292.15,690.52,285.44Z"/><path class="cls-3" d="M346.67,270H335.16l0,0a1.56,1.56,0,0,0-.68,0H321a1.36,1.36,0,0,0-.36-.05,1.49,1.49,0,0,0-.36.05H297.08l-1.37-4.08a1.64,1.64,0,0,0-1.15-1.08l-21.42-5.59a1.64,1.64,0,0,0-2,1.23,1.69,1.69,0,0,0,1.19,2.05l20.55,5.36,9.12,27h-2a6.51,6.51,0,0,0,0,13h41.34a1.7,1.7,0,0,0,0-3.39H300a3.12,3.12,0,0,1,0-6.24h37.43a1.66,1.66,0,0,0,1.55-1.09l9.25-24.94a1.76,1.76,0,0,0-.18-1.56A1.64,1.64,0,0,0,346.67,270Zm-48.45,3.38H306l.9,5.55h-6.8Zm3,8.94h6.2l.85,5.23H303Zm4.25,12.61-1.35-4h4.7l.64,4Zm13.54,0h-6.2l-.65-4H319Zm0-7.38h-7.4l-.85-5.23H319Zm0-8.62h-8.79l-.9-5.55H319Zm9.72,16h-6.42v-4h7.17Zm1.39-7.38h-7.81V282.3h8.79Zm-7.81-8.62v-5.55H332.8l-1,5.55Zm13.95,16h-4.16l.75-4h4.89Zm2.74-7.38H333.5l1-5.23H341Zm3.19-8.62h-7.09l1-5.55h8.11Z"/><path class="cls-4" d="M306.84,308.24a5.52,5.52,0,1,0,5.38,5.52A5.47,5.47,0,0,0,306.84,308.24Zm0,7.66a2.14,2.14,0,1,1,2.08-2.14A2.12,2.12,0,0,1,306.84,315.9Z"/><path class="cls-5" d="M338.38,308.24a5.52,5.52,0,1,0,5.39,5.52A5.46,5.46,0,0,0,338.38,308.24Zm0,7.66a2.14,2.14,0,1,1,2.09-2.14A2.11,2.11,0,0,1,338.38,315.9Z"/><path class="cls-6" d="M257.47,156H171.35a9,9,0,0,0-8.87,9.1V360.87a9,9,0,0,0,8.87,9.1h86.12a9,9,0,0,0,8.87-9.1V165.13A9,9,0,0,0,257.47,156Z"/><rect class="cls-7" x="165.58" y="168.1" width="97.66" height="178.17"/><polygon class="cls-8" points="263.24 346.28 263.24 168.1 165.58 168.1 263.24 346.28"/><path class="cls-9" d="M233.28,254.06H193.92a14.51,14.51,0,0,0,0,29h39.36a14.51,14.51,0,0,0,0-29Z"/><text class="cls-10" transform="translate(192.16 275.5) scale(0.98 1)">SHOP</text><path class="cls-11" d="M152.65,203.47a8.82,8.82,0,1,0,17.63,0V187.22H152.65Z"/><polygon class="cls-9" points="152.65 187.22 170.28 187.22 179.55 167.95 165.62 167.95 152.65 187.22"/><path class="cls-1" d="M170.3,203.47a8.93,8.93,0,0,0,8.81,9h0a8.93,8.93,0,0,0,8.82-9V187.22H170.3Z"/><polygon class="cls-12" points="170.3 187.22 187.93 187.22 193.49 167.95 179.56 167.95 170.3 187.22"/><path class="cls-13" d="M187.94,203.47a8.82,8.82,0,1,0,17.64,0V187.22H187.94Z"/><polygon class="cls-9" points="187.94 187.22 205.58 187.22 207.43 167.95 193.5 167.95 187.94 187.22"/><path class="cls-1" d="M205.59,203.47a8.82,8.82,0,1,0,17.64,0V187.22H205.59Z"/><polygon class="cls-12" points="207.44 167.95 205.59 187.22 223.22 187.22 221.37 167.95 207.44 167.95"/><path class="cls-11" d="M223.24,203.47a8.82,8.82,0,1,0,17.63,0V187.22H223.24Z"/><polygon class="cls-9" points="221.38 167.95 223.24 187.22 240.87 187.22 235.32 167.95 221.38 167.95"/><path class="cls-11" d="M187.94,203.47a8.82,8.82,0,1,0,17.64,0V187.22H187.94Z"/><path class="cls-1" d="M240.89,203.47a8.82,8.82,0,1,0,17.63,0V187.22H240.89Z"/><polygon class="cls-12" points="235.33 167.95 240.88 187.22 258.52 187.22 249.26 167.95 235.33 167.95"/><path class="cls-11" d="M258.53,203.47a8.93,8.93,0,0,0,8.82,9h0a8.93,8.93,0,0,0,8.82-9V187.22H258.53Z"/><polygon class="cls-9" points="249.27 167.95 258.53 187.22 276.17 187.22 263.2 167.95 249.27 167.95"/><path class="cls-14" d="M251.79,320.83a7.48,7.48,0,0,0-6.45,7.61v.2h-.74v-1.28a7.48,7.48,0,0,0-6.45-7.62,7.23,7.23,0,0,0-7.86,7.3v1.6h-.73V326a7.48,7.48,0,0,0-6.45-7.62,7.23,7.23,0,0,0-7.86,7.3v3h-.9V285.06a7.49,7.49,0,0,0-6.45-7.62,7.23,7.23,0,0,0-7.86,7.3v62L182.57,328.7a7.72,7.72,0,0,0-12,1.14,8.22,8.22,0,0,0,.35,9.54L200.16,377a14.59,14.59,0,0,0,8.24,11.55v28.81h43V388.54a14.69,14.69,0,0,0,8.28-13.28V328.13A7.23,7.23,0,0,0,251.79,320.83Z"/><path class="cls-15" d="M254.33,321.05a91.26,91.26,0,0,1-45.93,70v26.38h43V388.54a14.69,14.69,0,0,0,8.28-13.28V328.13A7.3,7.3,0,0,0,254.33,321.05Z"/><rect class="cls-16" x="205.88" y="401.32" width="48.02" height="41.62"/><path class="cls-11" d="M141.8,206.74H102.44a14.32,14.32,0,0,0-14.14,14.5h0a14.32,14.32,0,0,0,14.14,14.5H141.8a14.32,14.32,0,0,0,14.14-14.5h0A14.32,14.32,0,0,0,141.8,206.74Z"/><text class="cls-10" transform="translate(106.45 228.17) scale(0.98 1)">BUY</text><path class="cls-14" d="M140.84,244.16a3.76,3.76,0,0,0-3.23,3.82v.09h-.37v-.64a3.75,3.75,0,0,0-3.23-3.81,3.61,3.61,0,0,0-3.93,3.65v.8h-.37v-1.34a3.75,3.75,0,0,0-3.23-3.81,3.62,3.62,0,0,0-3.94,3.65v1.5h-.45V226.25a3.74,3.74,0,0,0-3.23-3.81,3.62,3.62,0,0,0-3.93,3.65v31l-8.75-9a3.86,3.86,0,0,0-6,.58,4.1,4.1,0,0,0,.18,4.77L115,272.3a7.32,7.32,0,0,0,4.13,5.79v14.42h21.51V278.06a7.34,7.34,0,0,0,4.14-6.65V247.82A3.62,3.62,0,0,0,140.84,244.16Z"/><path class="cls-15" d="M143,244.64a91.72,91.72,0,0,1-23.86,35v12.89h21.51V278.06a7.34,7.34,0,0,0,4.14-6.65V247.82A3.69,3.69,0,0,0,143,244.64Z"/><rect class="cls-17" x="117.85" y="284.47" width="24.05" height="28.3"/><polygon class="cls-18" points="295.28 214.83 292.56 256.49 332.04 256.49 329.31 214.83 295.28 214.83"/><path class="cls-19" d="M312.3,197.11a11.41,11.41,0,0,0-11.25,11.53V219.9a1.37,1.37,0,1,0,2.73,0V208.64a8.52,8.52,0,1,1,17,0V219.9a1.37,1.37,0,1,0,2.73,0V208.64A11.4,11.4,0,0,0,312.3,197.11Z"/><path class="cls-20" d="M330.21,326.11H279.5a5.78,5.78,0,0,0-5.71,5.85v38.36a5.78,5.78,0,0,0,5.71,5.85h50.71a5.78,5.78,0,0,0,5.71-5.85V332A5.78,5.78,0,0,0,330.21,326.11Z"/><path class="cls-1" d="M289.51,373.85h-3a.26.26,0,0,0,0,.52h3a.26.26,0,0,0,0-.52Z"/><path class="cls-1" d="M288.56,328.17a.25.25,0,0,0-.25-.26h-3a.26.26,0,0,0,0,.51h3A.25.25,0,0,0,288.56,328.17Z"/><path class="cls-1" d="M284.53,373.85h-3a.26.26,0,1,0,0,.52h3a.26.26,0,0,0,0-.52Z"/><path class="cls-1" d="M283.58,328.17a.26.26,0,0,0-.25-.26h-3a.26.26,0,0,0,0,.51h3A.25.25,0,0,0,283.58,328.17Z"/><path class="cls-1" d="M299.48,373.85h-3a.26.26,0,0,0,0,.52h3a.26.26,0,0,0,0-.52Z"/><path class="cls-1" d="M298.53,328.17a.25.25,0,0,0-.25-.26h-3a.26.26,0,0,0,0,.51h3A.25.25,0,0,0,298.53,328.17Z"/><path class="cls-1" d="M293.55,328.17a.26.26,0,0,0-.25-.26h-3a.26.26,0,1,0,0,.51h3A.25.25,0,0,0,293.55,328.17Z"/><path class="cls-1" d="M279.5,373.85a3.34,3.34,0,0,1-2.49-1.09.25.25,0,0,0-.36,0,.26.26,0,0,0,0,.36,3.87,3.87,0,0,0,2.86,1.26h0a.24.24,0,0,0,.23-.26A.27.27,0,0,0,279.5,373.85Z"/><path class="cls-1" d="M294.5,373.85h-3a.26.26,0,0,0,0,.52h3a.26.26,0,0,0,0-.52Z"/><path class="cls-1" d="M275.8,356.08a.25.25,0,0,0,.25-.26v-3.06a.25.25,0,1,0-.5,0v3.06A.25.25,0,0,0,275.8,356.08Z"/><path class="cls-1" d="M275.8,345.85a.25.25,0,0,0,.25-.25v-3.07a.25.25,0,1,0-.5,0v3.07A.25.25,0,0,0,275.8,345.85Z"/><path class="cls-1" d="M275.8,340.74a.26.26,0,0,0,.25-.26v-3.06a.25.25,0,1,0-.5,0v3.06A.26.26,0,0,0,275.8,340.74Z"/><path class="cls-1" d="M275.8,351a.26.26,0,0,0,.25-.26v-3.07a.25.25,0,1,0-.5,0v3.07A.26.26,0,0,0,275.8,351Z"/><path class="cls-1" d="M275.8,335.63a.26.26,0,0,0,.25-.26V332.3a.25.25,0,1,0-.5,0v3.07A.26.26,0,0,0,275.8,335.63Z"/><path class="cls-1" d="M276.05,368.1a.25.25,0,1,0-.5,0v2.22a3.8,3.8,0,0,0,.1.89.25.25,0,0,0,.24.2H276a.26.26,0,0,0,.19-.31,3.39,3.39,0,0,1-.09-.78Z"/><path class="cls-1" d="M278.44,328.59a.26.26,0,0,0,.16-.32.26.26,0,0,0-.32-.17,4,4,0,0,0-2.34,2.1.25.25,0,0,0,.12.34.2.2,0,0,0,.11,0,.23.23,0,0,0,.22-.15A3.55,3.55,0,0,1,278.44,328.59Z"/><path class="cls-1" d="M303.52,328.17a.25.25,0,0,0-.25-.26h-3a.26.26,0,0,0,0,.51h3A.25.25,0,0,0,303.52,328.17Z"/><path class="cls-1" d="M275.8,361.19a.25.25,0,0,0,.25-.25v-3.07a.25.25,0,1,0-.5,0v3.07A.25.25,0,0,0,275.8,361.19Z"/><path class="cls-1" d="M275.8,366.31a.26.26,0,0,0,.25-.26V363a.25.25,0,1,0-.5,0v3.07A.26.26,0,0,0,275.8,366.31Z"/><path class="cls-1" d="M333.91,356.4a.26.26,0,0,0-.25.26v3.07a.25.25,0,0,0,.5,0v-3.07A.26.26,0,0,0,333.91,356.4Z"/><path class="cls-1" d="M333.91,361.52a.25.25,0,0,0-.25.25v3.07a.25.25,0,1,0,.5,0v-3.07A.25.25,0,0,0,333.91,361.52Z"/><path class="cls-1" d="M333.33,371.83a3.57,3.57,0,0,1-2,1.85.26.26,0,0,0-.16.32.26.26,0,0,0,.24.18l.08,0a4,4,0,0,0,2.33-2.11.25.25,0,0,0-.12-.34A.25.25,0,0,0,333.33,371.83Z"/><path class="cls-1" d="M333.91,366.63a.25.25,0,0,0-.25.26V370a.25.25,0,1,0,.5,0v-3.06A.25.25,0,0,0,333.91,366.63Z"/><path class="cls-1" d="M333.91,351.29a.25.25,0,0,0-.25.26v3.06a.25.25,0,1,0,.5,0v-3.06A.25.25,0,0,0,333.91,351.29Z"/><path class="cls-1" d="M333.91,341.06a.26.26,0,0,0-.25.26v3.07a.25.25,0,0,0,.5,0v-3.07A.26.26,0,0,0,333.91,341.06Z"/><path class="cls-1" d="M333.91,336a.25.25,0,0,0-.25.26v3.06a.25.25,0,1,0,.5,0v-3.06A.25.25,0,0,0,333.91,336Z"/><path class="cls-1" d="M333.76,330.85a.26.26,0,0,0-.19.31,3.57,3.57,0,0,1,.09.8v2.2a.25.25,0,1,0,.5,0V332a4.05,4.05,0,0,0-.1-.92A.25.25,0,0,0,333.76,330.85Z"/><path class="cls-1" d="M304.47,373.85h-3a.26.26,0,0,0,0,.52h3a.26.26,0,0,0,0-.52Z"/><path class="cls-1" d="M333.91,346.18a.25.25,0,0,0-.25.25v3.07a.25.25,0,1,0,.5,0v-3.07A.25.25,0,0,0,333.91,346.18Z"/><path class="cls-1" d="M332.87,329.58a.26.26,0,0,0,.18-.07.25.25,0,0,0,0-.36,3.86,3.86,0,0,0-2.84-1.24h0a.24.24,0,0,0-.24.26.26.26,0,0,0,.26.25,3.39,3.39,0,0,1,2.48,1.09A.26.26,0,0,0,332.87,329.58Z"/><path class="cls-1" d="M314.44,373.85h-3a.26.26,0,0,0,0,.52h3a.26.26,0,0,0,0-.52Z"/><path class="cls-1" d="M313.49,328.17a.25.25,0,0,0-.25-.26h-3a.26.26,0,0,0,0,.51h3A.25.25,0,0,0,313.49,328.17Z"/><path class="cls-1" d="M318.48,328.17a.26.26,0,0,0-.25-.26h-3a.26.26,0,0,0,0,.51h3A.25.25,0,0,0,318.48,328.17Z"/><path class="cls-1" d="M308.5,328.17a.25.25,0,0,0-.25-.26h-3a.26.26,0,0,0,0,.51h3A.25.25,0,0,0,308.5,328.17Z"/><path class="cls-1" d="M309.45,373.85h-3a.26.26,0,0,0,0,.52h3a.26.26,0,0,0,0-.52Z"/><path class="cls-1" d="M329.4,373.85h-3a.26.26,0,0,0,0,.52h3a.26.26,0,0,0,0-.52Z"/><path class="cls-1" d="M319.43,373.85h-3a.26.26,0,0,0,0,.52h3a.26.26,0,0,0,0-.52Z"/><path class="cls-1" d="M328.45,328.17a.26.26,0,0,0-.25-.26h-3a.26.26,0,1,0,0,.51h3A.25.25,0,0,0,328.45,328.17Z"/><path class="cls-1" d="M324.41,373.85h-3a.26.26,0,0,0,0,.52h3a.26.26,0,0,0,0-.52Z"/><path class="cls-1" d="M323.46,328.17a.25.25,0,0,0-.25-.26h-3a.26.26,0,0,0,0,.51h3A.25.25,0,0,0,323.46,328.17Z"/><path class="cls-21" d="M317.56,345.7a8.26,8.26,0,0,0-2,6.23,8.17,8.17,0,0,0,8.13,7.29h12.24V343.06H323.39A7.83,7.83,0,0,0,317.56,345.7Z"/><path class="cls-11" d="M336.75,344.31H323.4a6.76,6.76,0,0,0-6.63,7.5,6.92,6.92,0,0,0,6.91,6.16h13.07a.28.28,0,0,0,.27-.29V344.6A.28.28,0,0,0,336.75,344.31Z"/><path class="cls-21" d="M322.76,347.53a3.61,3.61,0,1,0,3.53,3.61A3.56,3.56,0,0,0,322.76,347.53Z"/><path class="cls-22" d="M322.76,348.23a2.91,2.91,0,1,0,2.84,2.91A2.88,2.88,0,0,0,322.76,348.23Z"/><path class="cls-23" d="M152.56,342.21l-41.23-25.32a1.75,1.75,0,0,0-2.43.63L94,343a1.84,1.84,0,0,0,.61,2.49l41.23,25.32a1.76,1.76,0,0,0,2.44-.62l14.87-25.47A1.85,1.85,0,0,0,152.56,342.21Z"/><polygon class="cls-24" points="104.17 325.63 148.44 352.82 151.88 346.93 107.6 319.74 104.17 325.63"/><polygon class="cls-1" points="94.87 341.55 139.15 368.74 147.46 354.5 103.18 327.31 94.87 341.55"/><path class="cls-9" d="M142.11,337.2H94.06A1.8,1.8,0,0,0,92.28,339V368.7a1.8,1.8,0,0,0,1.78,1.82h48.05a1.8,1.8,0,0,0,1.78-1.82V339A1.8,1.8,0,0,0,142.11,337.2Z"/><rect class="cls-24" x="92.28" y="341.61" width="51.61" height="6.86"/><rect class="cls-1" x="92.28" y="350.43" width="51.61" height="16.59"/><path class="cls-25" d="M144.09,379.25l-16.93,16.93a1.77,1.77,0,0,0,0,2.47,1.66,1.66,0,0,0,2.4,0l16.93-16.93a1.77,1.77,0,0,0,0-2.47A1.67,1.67,0,0,0,144.09,379.25Z"/><path class="cls-26" d="M152.29,379.25a1.68,1.68,0,0,0-2.41,0,1.78,1.78,0,0,0,0,2.47l16.93,16.93a1.67,1.67,0,0,0,2.41,0,1.79,1.79,0,0,0,0-2.47Z"/><path class="cls-27" d="M128.32,430.42a6.79,6.79,0,0,0,6.72,5.66h26.3a6.8,6.8,0,0,0,6.72-5.66l5-31.8H123.28ZM161.11,429l3.28-22.6a2.3,2.3,0,0,1,2.25-2,2.32,2.32,0,0,1,2.26,2.68l-3.28,22.6a2.28,2.28,0,1,1-4.51-.69Zm-5.61-22.4a2.31,2.31,0,0,1,2.27-2.19h0a2.32,2.32,0,0,1,2.28,2.48l-1.41,22.61a2.3,2.3,0,0,1-2.27,2.19h0a2.32,2.32,0,0,1-2.28-2.49Zm-8.91.15a2.31,2.31,0,0,1,2.28-2.34h0a2.31,2.31,0,0,1,2.28,2.34v22.6a2.31,2.31,0,0,1-2.28,2.34h0a2.31,2.31,0,0,1-2.28-2.34ZM140,404.44h0a2.3,2.3,0,0,1,2.27,2.19l1.41,22.6a2.31,2.31,0,0,1-2.27,2.49h-.05a2.31,2.31,0,0,1-2.27-2.19l-1.41-22.61A2.32,2.32,0,0,1,140,404.44Zm-8.83,0a2.29,2.29,0,0,1,2.25,2l3.29,22.6a2.33,2.33,0,0,1-2.26,2.69,2.29,2.29,0,0,1-2.25-2l-3.29-22.6A2.33,2.33,0,0,1,131.15,404.44Z"/><path class="cls-28" d="M172.67,395.73h-49a3.05,3.05,0,0,0,0,6.1h49a3.05,3.05,0,0,0,0-6.1Z"/><ellipse class="cls-29" cx="281.48" cy="407.29" rx="21.4" ry="21.95"/><path class="cls-30" d="M281.48,389.52a17.78,17.78,0,1,0,17.32,17.77A17.56,17.56,0,0,0,281.48,389.52Z"/><path class="cls-29" d="M280.45,403.12c0-1.2.62-1.56,1.87-1.56a4.44,4.44,0,0,1,3.05,1.44l2.48-2.94a7.59,7.59,0,0,0-4.41-2.52v-3.06h-3.28v3.12a5.49,5.49,0,0,0-4.5,5.76c0,5.25,7.54,5.58,7.54,8,0,1.17-.58,1.68-2,1.68a6.62,6.62,0,0,1-4-1.68L275,414.82a9.72,9.72,0,0,0,5.2,2.28v3h3.28v-3.18A5.69,5.69,0,0,0,288,411C288,405.52,280.45,405.4,280.45,403.12Z"/><ellipse class="cls-29" cx="294.73" cy="414.79" rx="21.4" ry="21.95"/><path class="cls-30" d="M294.73,397a17.78,17.78,0,1,0,17.33,17.77A17.56,17.56,0,0,0,294.73,397Z"/><path class="cls-29" d="M293.71,410.62c0-1.2.61-1.56,1.87-1.56a4.42,4.42,0,0,1,3,1.44l2.49-2.94a7.62,7.62,0,0,0-4.42-2.52V402h-3.28v3.12a5.5,5.5,0,0,0-4.5,5.76c0,5.25,7.55,5.58,7.55,8,0,1.17-.59,1.68-2,1.68a6.62,6.62,0,0,1-4-1.68l-2.16,3.48a9.76,9.76,0,0,0,5.2,2.28v3h3.28v-3.18a5.69,5.69,0,0,0,4.56-5.94C301.25,413,293.71,412.9,293.71,410.62Z"/></svg>