<svg id="Layer_1" data-name="Layer 1" xmlns="http://www.w3.org/2000/svg" viewBox="0 0 455.06 487"><defs><style>.cls-1{fill:#f9f9f9;}</style></defs><title>white-logo</title><path class="cls-1" d="M483.57,389.69,472.94,164.28c-1.4-29.62-23.73-53.45-51.92-55.42l-50.46-3.57A94.34,94.34,0,0,0,254.32,15.93,88.78,88.78,0,0,0,127,88.62c-25.87.92-48.29,20.58-53.42,47.74L31.67,358.08A97.69,97.69,0,0,0,47.51,438.5c15.43,21.07,38.76,34.18,64,35.94l276.79,19.35q2.94.21,5.86.21a87.39,87.39,0,0,0,62.53-26.89,97.66,97.66,0,0,0,26.87-77.42M318.18,71.24a55,55,0,0,1,13.31,31.28l-27.42-1.94a88.08,88.08,0,0,0-9.6-45.32,55.09,55.09,0,0,1,23.71,16M182.68,58.08A49.82,49.82,0,0,1,204,47.14a93.27,93.27,0,0,0-20.68,45.1L165.78,91a49.57,49.57,0,0,1,16.9-32.93m246.18,382c-10.37,10.66-23.79,16-37.84,15L114.23,435.71c-14-1-26.6-8.13-35.39-20.14a59,59,0,0,1-9.32-48.86l42.2-223.15c1.85-9.8,9.73-16.78,18.29-16.13l50.19,3.51-2,28.76a19.41,19.41,0,0,0,38.73,2.71l3.36-48.13.74-10.53a55.33,55.33,0,0,1,28.36-44.58,49.84,49.84,0,0,1,15.93,38.67l-5.6-.4A19.41,19.41,0,0,0,257,136.16l72.59,5.14-2.24,32.07a19.41,19.41,0,0,0,18,20.72c.46,0,.91,0,1.37,0A19.4,19.4,0,0,0,366,176.07l2.24-32,50,3.55c8.58.6,15.39,8.56,15.87,18.52L444.82,392l.07,1a59,59,0,0,1-16,47.09" transform="translate(-28.95 -7)"/><path class="cls-1" d="M342.17,216.7,194.41,206.23A19.41,19.41,0,0,0,191.67,245l147.76,10.47c.47,0,.92,0,1.39,0a19.41,19.41,0,0,0,1.35-38.77" transform="translate(-28.95 -7)"/><path class="cls-1" d="M259.56,336.44a19.41,19.41,0,0,0-20.72,18l-4.08,58.27a19.4,19.4,0,0,0,18,20.71c.46,0,.92.05,1.37.05a19.41,19.41,0,0,0,19.35-18.05l4.07-58.27a19.41,19.41,0,0,0-18-20.72" transform="translate(-28.95 -7)"/><path class="cls-1" d="M335,341.72a19.41,19.41,0,0,0-20.72,18L310.21,418a19.4,19.4,0,0,0,18,20.72c.46,0,.92.05,1.38.05a19.42,19.42,0,0,0,19.34-18.06L353,362.43a19.4,19.4,0,0,0-18-20.71" transform="translate(-28.95 -7)"/><path class="cls-1" d="M337.6,281.24l-131.71-8.93a41.81,41.81,0,0,0-44.64,38.88L155,406.33A19.41,19.41,0,0,0,173.11,427c.43,0,.86,0,1.29,0a19.41,19.41,0,0,0,19.35-18.14L200,313.81a3.08,3.08,0,0,1,3.25-2.77L335,320a19.41,19.41,0,0,0,2.63-38.73" transform="translate(-28.95 -7)"/></svg>